<svg width="700" height="389" viewBox="0 0 700 389" fill="none" xmlns="http://www.w3.org/2000/svg">
<rect x="0.330811" width="699.153" height="388.832" rx="32" fill="#6E63F0"/>
<path d="M40.7267 70.4733C40.7267 63.0367 46.7554 57.0081 54.192 57.0081H81.1226C88.5593 57.0081 94.5879 63.0367 94.5879 70.4733C94.5879 77.91 88.5593 83.9386 81.1226 83.9386H54.192C46.7554 83.9386 40.7267 77.91 40.7267 70.4733Z" fill="#AFA9F8"/>
<path d="M121.518 70.4734C121.518 85.3468 109.461 97.404 94.5878 97.404C79.7145 97.404 67.6572 85.3468 67.6572 70.4734C67.6572 55.6001 79.7145 43.5428 94.5878 43.5428C109.461 43.5428 121.518 55.6001 121.518 70.4734Z" fill="black"/>
<path d="M87.3827 200.901V149.061H78.6707L54.5147 185.925V149.061H45.7667V200.901H54.5147L78.6707 164.037V200.901H87.3827ZM95.2864 209.433H103.962V200.901H128.586V209.433H137.262V192.837H132.222V162.021H101.73V175.269C101.73 181.497 101.694 189.921 99.0664 192.837H95.2864V209.433ZM108.03 192.837C109.074 189.921 109.722 185.025 109.722 179.481V170.085H123.546V192.837H108.03ZM162.396 193.989C156.708 193.989 153.072 190.281 152.316 183.873H180.432C181.44 169.869 174.708 160.941 162.324 160.941C150.912 160.941 142.992 169.185 142.992 181.461C142.992 193.593 150.768 201.981 162.396 201.981C170.604 201.981 177.012 197.949 180 190.893L171.432 188.445C169.704 192.117 166.824 193.989 162.396 193.989ZM152.532 177.321C153.612 171.813 157.068 168.645 162.324 168.645C167.76 168.645 171.18 171.849 171.612 177.321H152.532ZM214.205 162.021L197.789 187.581V162.021H189.113V200.901H197.789L214.205 175.341V200.901H222.881V162.021H214.205Z" fill="white"/>
<path d="M55.7387 277.031V259.751H53.5907L44.5547 273.323V259.751H42.4067V277.031H44.5547L53.5907 263.459V277.031H55.7387ZM63.8582 277.391C67.1942 277.391 69.1382 275.711 69.1382 273.311C69.1382 271.811 68.2502 270.683 67.0982 270.323C68.1902 269.843 68.7902 268.967 68.7902 267.647C68.7902 265.199 66.9782 263.711 63.8462 263.711C61.3622 263.711 59.1782 264.659 58.4702 267.551L60.5102 267.923C60.8702 266.471 61.8422 265.619 63.7982 265.619C65.6822 265.619 66.6782 266.399 66.6782 267.767C66.6782 268.883 65.8382 269.495 64.3982 269.495H62.4062V271.259H64.3982C65.8982 271.259 67.0142 271.823 67.0142 273.287C67.0142 274.643 65.8742 275.483 63.7982 275.483C61.7942 275.483 60.5702 274.583 60.2942 272.771L58.2542 273.143C58.7582 276.059 60.8342 277.391 63.8582 277.391ZM75.8956 282.791L82.9516 264.071H80.7796L76.9876 274.271L72.9436 264.071H70.6996L75.9556 276.983L73.8196 282.791H75.8956ZM94.4856 277.031V264.071H92.3496V270.023C91.5096 270.599 90.5616 270.899 89.3496 270.899C87.2256 270.899 86.5896 269.831 86.5896 267.503V264.071H84.4536V267.803C84.4536 271.211 85.8576 272.783 88.9416 272.783C90.3336 272.783 91.4856 272.495 92.3496 271.991V277.031H94.4856ZM103.205 263.711C100.385 263.711 98.4893 264.995 97.8533 267.359L99.8453 267.863C100.277 266.351 101.357 265.643 103.181 265.643C105.317 265.643 106.325 266.639 106.337 268.907L102.605 269.363C99.3773 269.771 97.3733 270.923 97.3733 273.587C97.3733 275.927 99.0893 277.391 101.813 277.391C103.901 277.391 105.437 276.563 106.337 274.991V277.031H108.473V269.195C108.473 265.511 106.745 263.711 103.205 263.711ZM106.337 270.575V270.611C106.337 271.187 106.337 271.967 106.133 272.615C105.725 274.379 104.273 275.543 102.257 275.543C100.433 275.543 99.4853 274.823 99.4853 273.443C99.4853 272.027 100.481 271.307 102.845 271.007L106.337 270.575ZM117.413 262.559C118.013 262.559 118.565 262.415 119.069 262.115C120.065 261.539 120.689 260.471 120.689 259.283H118.961C118.961 260.123 118.289 260.831 117.413 260.831C116.573 260.831 115.865 260.123 115.865 259.283H114.137C114.137 259.871 114.281 260.423 114.581 260.927C115.157 261.935 116.225 262.559 117.413 262.559ZM120.305 264.071L113.957 273.683V264.071H111.821V277.031H113.957L120.305 267.419V277.031H122.441V264.071H120.305ZM131.55 277.031V266.087H136.002V264.071H124.962V266.087H129.414V277.031H131.55ZM144.084 275.387C141.756 275.387 140.28 273.827 140.088 271.151H150.024C150.216 266.543 148.008 263.711 144.036 263.711C140.28 263.711 137.796 266.387 137.796 270.551C137.796 274.667 140.292 277.391 144.084 277.391C146.724 277.391 148.788 276.095 149.808 273.791L147.744 273.107C147.036 274.571 145.872 275.387 144.084 275.387ZM140.136 269.435C140.448 267.035 141.84 265.655 144.036 265.655C146.256 265.655 147.612 267.011 147.804 269.435H140.136ZM152.227 279.719C152.407 279.755 152.587 279.767 152.743 279.767C153.019 279.767 153.295 279.707 153.595 279.575C154.171 279.311 154.579 278.507 154.579 277.391V274.319H152.227V277.031H153.463C153.475 277.139 153.475 277.247 153.487 277.355V277.439C153.487 278.255 153.175 278.735 152.503 278.735C152.455 278.735 152.407 278.735 152.359 278.723L152.227 279.719ZM164.42 277.031H166.556V270.791L172.448 277.031H175.436L169.04 270.551L174.764 264.071H171.992L166.556 270.311V264.071H164.42V277.031ZM181.995 263.711C179.175 263.711 177.279 264.995 176.643 267.359L178.635 267.863C179.067 266.351 180.147 265.643 181.971 265.643C184.107 265.643 185.115 266.639 185.127 268.907L181.395 269.363C178.167 269.771 176.163 270.923 176.163 273.587C176.163 275.927 177.879 277.391 180.603 277.391C182.691 277.391 184.227 276.563 185.127 274.991V277.031H187.263V269.195C187.263 265.511 185.535 263.711 181.995 263.711ZM185.127 270.575V270.611C185.127 271.187 185.127 271.967 184.923 272.615C184.515 274.379 183.063 275.543 181.047 275.543C179.223 275.543 178.275 274.823 178.275 273.443C178.275 272.027 179.271 271.307 181.635 271.007L185.127 270.575ZM190.611 277.031H192.747V270.791L198.639 277.031H201.627L195.231 270.551L200.955 264.071H198.183L192.747 270.311V264.071H190.611V277.031ZM210.254 282.791V275.003C211.082 276.491 212.474 277.391 214.586 277.391C218.15 277.391 220.478 274.607 220.478 270.539C220.478 266.531 218.174 263.711 214.586 263.711C212.486 263.711 211.082 264.599 210.254 266.099V264.071H208.118V282.791H210.254ZM214.226 275.363C211.61 275.363 210.254 273.467 210.254 270.539C210.254 267.707 211.514 265.739 214.226 265.739C216.878 265.739 218.21 267.623 218.21 270.539C218.21 273.395 216.902 275.363 214.226 275.363ZM228.47 263.711C225.65 263.711 223.754 264.995 223.118 267.359L225.11 267.863C225.542 266.351 226.622 265.643 228.446 265.643C230.582 265.643 231.59 266.639 231.602 268.907L227.87 269.363C224.642 269.771 222.638 270.923 222.638 273.587C222.638 275.927 224.354 277.391 227.078 277.391C229.166 277.391 230.702 276.563 231.602 274.991V277.031H233.738V269.195C233.738 265.511 232.01 263.711 228.47 263.711ZM231.602 270.575V270.611C231.602 271.187 231.602 271.967 231.398 272.615C230.99 274.379 229.538 275.543 227.522 275.543C225.698 275.543 224.75 274.823 224.75 273.443C224.75 272.027 225.746 271.307 228.11 271.007L231.602 270.575ZM241.622 277.391C244.958 277.391 246.902 275.711 246.902 273.311C246.902 271.811 246.014 270.683 244.862 270.323C245.954 269.843 246.554 268.967 246.554 267.647C246.554 265.199 244.742 263.711 241.61 263.711C239.126 263.711 236.942 264.659 236.234 267.551L238.274 267.923C238.634 266.471 239.606 265.619 241.562 265.619C243.446 265.619 244.442 266.399 244.442 267.767C244.442 268.883 243.602 269.495 242.162 269.495H240.17V271.259H242.162C243.662 271.259 244.778 271.823 244.778 273.287C244.778 274.643 243.638 275.483 241.562 275.483C239.558 275.483 238.334 274.583 238.058 272.771L236.018 273.143C236.522 276.059 238.598 277.391 241.622 277.391ZM251.908 277.031V271.559H258.724V277.031H260.86V264.071H258.724V269.543H251.908V264.071H249.772V277.031H251.908ZM278.465 277.031V264.071H276.329V277.031H278.465ZM270.269 277.031C273.329 277.031 274.853 275.267 274.853 272.927C274.853 270.587 273.329 268.835 270.269 268.835H266.597V264.071H264.461V277.031H270.269ZM266.597 275.219V270.635H269.993C271.853 270.635 272.705 271.607 272.705 272.927C272.705 274.247 271.853 275.219 269.993 275.219H266.597ZM287.636 275.387C285.308 275.387 283.832 273.827 283.64 271.151H293.576C293.768 266.543 291.56 263.711 287.588 263.711C283.832 263.711 281.348 266.387 281.348 270.551C281.348 274.667 283.844 277.391 287.636 277.391C290.276 277.391 292.34 276.095 293.36 273.791L291.296 273.107C290.588 274.571 289.424 275.387 287.636 275.387ZM283.688 269.435C284 267.035 285.392 265.655 287.588 265.655C289.808 265.655 291.164 267.011 291.356 269.435H283.688ZM300.333 277.199C300.753 277.331 301.149 277.391 301.509 277.391C303.561 277.391 304.605 275.303 304.605 270.707V266.087H310.005V277.031H312.141V264.071H302.601V270.107C302.601 273.467 302.205 275.435 300.873 275.435C300.705 275.435 300.525 275.399 300.333 275.339V277.199ZM326.553 277.391C330.405 277.391 332.805 274.607 332.805 270.539C332.805 266.531 330.441 263.711 326.553 263.711C323.085 263.711 320.757 266.003 320.361 269.483H317.865V264.071H315.729V277.031H317.865V271.619H320.361C320.757 275.051 323.025 277.391 326.553 277.391ZM326.553 275.363C323.937 275.363 322.581 273.467 322.581 270.539C322.581 267.707 323.841 265.739 326.553 265.739C329.205 265.739 330.537 267.623 330.537 270.539C330.537 273.395 329.229 275.363 326.553 275.363ZM334.732 279.791H336.868V277.031H346.168V279.791H348.304V275.015H346.624V264.071H336.964V268.847C336.964 271.535 336.808 274.055 335.992 275.015H334.732V279.791ZM338.26 275.015C338.692 274.043 338.968 272.147 338.968 269.975V266.087H344.488V275.015H338.26ZM359.428 264.071L353.08 273.683V264.071H350.944V277.031H353.08L359.428 267.419V277.031H361.564V264.071H359.428ZM378.681 264.071L372.333 273.683V264.071H370.197V277.031H372.333L378.681 267.419V277.031H380.817V264.071H378.681ZM389.878 277.391C392.554 277.391 394.51 276.083 395.422 273.659L393.262 273.095C392.686 274.547 391.582 275.363 389.878 275.363C387.298 275.363 385.966 273.443 385.966 270.551C385.966 267.623 387.31 265.739 389.878 265.739C391.462 265.739 392.758 266.615 393.31 268.115L395.422 267.479C394.738 265.151 392.638 263.711 389.902 263.711C386.062 263.711 383.698 266.435 383.698 270.551C383.698 274.619 386.026 277.391 389.878 277.391ZM400.235 277.031V266.087H406.463V277.031H408.599V264.071H398.099V277.031H400.235ZM417.723 277.391C421.575 277.391 423.975 274.607 423.975 270.539C423.975 266.507 421.599 263.711 417.723 263.711C413.907 263.711 411.483 266.483 411.483 270.539C411.483 274.571 413.871 277.391 417.723 277.391ZM417.723 275.363C415.143 275.363 413.751 273.503 413.751 270.539C413.751 267.611 415.083 265.739 417.723 265.739C420.339 265.739 421.707 267.563 421.707 270.539C421.707 273.467 420.339 275.363 417.723 275.363ZM425.657 277.199C426.077 277.331 426.473 277.391 426.833 277.391C428.885 277.391 429.929 275.303 429.929 270.707V266.087H435.329V277.031H437.465V264.071H427.925V270.107C427.925 273.467 427.529 275.435 426.197 275.435C426.029 275.435 425.849 275.399 425.657 275.339V277.199ZM446.873 277.031C449.933 277.031 451.445 275.267 451.445 272.927C451.445 270.587 449.933 268.835 446.873 268.835H443.201V264.071H441.065V277.031H446.873ZM443.201 275.219V270.635H446.597C448.457 270.635 449.309 271.607 449.309 272.927C449.309 274.247 448.457 275.219 446.597 275.219H443.201ZM458.861 277.391C462.197 277.391 464.141 275.711 464.141 273.311C464.141 271.811 463.253 270.683 462.101 270.323C463.193 269.843 463.793 268.967 463.793 267.647C463.793 265.199 461.981 263.711 458.849 263.711C456.365 263.711 454.181 264.659 453.473 267.551L455.513 267.923C455.873 266.471 456.845 265.619 458.801 265.619C460.685 265.619 461.681 266.399 461.681 267.767C461.681 268.883 460.841 269.495 459.401 269.495H457.409V271.259H459.401C460.901 271.259 462.017 271.823 462.017 273.287C462.017 274.643 460.877 275.483 458.801 275.483C456.797 275.483 455.573 274.583 455.297 272.771L453.257 273.143C453.761 276.059 455.837 277.391 458.861 277.391ZM470.898 282.791L477.954 264.071H475.782L471.99 274.271L467.946 264.071H465.702L470.958 276.983L468.822 282.791H470.898ZM490.988 277.391C494.84 277.391 497.24 274.607 497.24 270.539C497.24 266.531 494.876 263.711 490.988 263.711C487.52 263.711 485.192 266.003 484.796 269.483H482.3V264.071H480.164V277.031H482.3V271.619H484.796C485.192 275.051 487.46 277.391 490.988 277.391ZM490.988 275.363C488.372 275.363 487.016 273.467 487.016 270.539C487.016 267.707 488.276 265.739 490.988 265.739C493.64 265.739 494.972 267.623 494.972 270.539C494.972 273.395 493.664 275.363 490.988 275.363ZM505.33 277.031V266.087H509.782V264.071H498.742V266.087H503.194V277.031H505.33ZM42.3947 311.031H44.5307V304.791L50.4227 311.031H53.4107L47.0147 304.551L52.7387 298.071H49.9667L44.5307 304.311V298.071H42.3947V311.031ZM60.1433 311.391C63.9953 311.391 66.3953 308.607 66.3953 304.539C66.3953 300.507 64.0193 297.711 60.1433 297.711C56.3273 297.711 53.9033 300.483 53.9033 304.539C53.9033 308.571 56.2913 311.391 60.1433 311.391ZM60.1433 309.363C57.5633 309.363 56.1713 307.503 56.1713 304.539C56.1713 301.611 57.5033 299.739 60.1433 299.739C62.7593 299.739 64.1273 301.563 64.1273 304.539C64.1273 307.467 62.7593 309.363 60.1433 309.363ZM71.4014 311.031V302.235L74.8814 309.099H76.6814L80.1614 302.235V311.031H82.2974V298.071H80.1614L75.7814 306.663L71.4014 298.071H69.2654V311.031H71.4014ZM91.0962 311.403C94.7562 311.427 97.2162 308.943 97.2162 305.139C97.2162 301.443 94.9482 298.959 91.6482 298.959C89.8002 298.959 88.3122 299.655 87.3162 301.215C87.5322 298.707 88.0242 297.603 89.2362 296.883C91.0362 295.815 93.3282 296.175 96.6042 295.407L96.4482 293.391C93.0522 294.183 90.3042 293.775 87.9522 295.299C86.2722 296.391 85.6482 298.227 85.3362 300.819C85.1802 302.091 85.1562 303.519 85.2162 304.563C85.3962 308.835 87.4242 311.379 91.0962 311.403ZM91.1682 309.375C88.8882 309.375 87.4962 307.755 87.4962 305.211C87.4962 302.607 88.8522 300.999 91.2762 300.999C93.6162 300.999 94.9602 302.631 94.9602 305.211C94.9602 307.743 93.5802 309.375 91.1682 309.375ZM108.557 298.071L102.209 307.683V298.071H100.073V311.031H102.209L108.557 301.419V311.031H110.693V298.071H108.557ZM116.418 311.031V305.559H123.234V311.031H125.37V298.071H123.234V303.543H116.418V298.071H114.282V311.031H116.418ZM134.084 297.711C131.264 297.711 129.368 298.995 128.732 301.359L130.724 301.863C131.156 300.351 132.236 299.643 134.06 299.643C136.196 299.643 137.204 300.639 137.216 302.907L133.484 303.363C130.256 303.771 128.252 304.923 128.252 307.587C128.252 309.927 129.968 311.391 132.692 311.391C134.78 311.391 136.316 310.563 137.216 308.991V311.031H139.352V303.195C139.352 299.511 137.624 297.711 134.084 297.711ZM137.216 304.575V304.611C137.216 305.187 137.216 305.967 137.012 306.615C136.604 308.379 135.152 309.543 133.136 309.543C131.312 309.543 130.364 308.823 130.364 307.443C130.364 306.027 131.36 305.307 133.724 305.007L137.216 304.575ZM155 313.791V309.015H153.32V298.071H151.184V309.015H144.836V298.071H142.7V311.031H152.864V313.791H155ZM165.627 298.071L159.279 307.683V298.071H157.143V311.031H159.279L165.627 301.419V311.031H167.763V298.071H165.627ZM179.836 298.071L173.488 307.683V298.071H171.352V311.031H173.488L179.836 301.419V311.031H181.972V298.071H179.836ZM192.765 311.031V300.087H199.077V298.071H190.617V311.031H192.765ZM206.282 297.711C203.462 297.711 201.566 298.995 200.93 301.359L202.922 301.863C203.354 300.351 204.434 299.643 206.258 299.643C208.394 299.643 209.402 300.639 209.414 302.907L205.682 303.363C202.454 303.771 200.45 304.923 200.45 307.587C200.45 309.927 202.166 311.391 204.89 311.391C206.978 311.391 208.514 310.563 209.414 308.991V311.031H211.55V303.195C211.55 299.511 209.822 297.711 206.282 297.711ZM209.414 304.575V304.611C209.414 305.187 209.414 305.967 209.21 306.615C208.802 308.379 207.35 309.543 205.334 309.543C203.51 309.543 202.562 308.823 202.562 307.443C202.562 306.027 203.558 305.307 205.922 305.007L209.414 304.575ZM213.95 313.791H216.086V311.031H225.386V313.791H227.522V309.015H225.842V298.071H216.182V302.847C216.182 305.535 216.026 308.055 215.21 309.015H213.95V313.791ZM217.478 309.015C217.91 308.043 218.186 306.147 218.186 303.975V300.087H223.706V309.015H217.478ZM237.613 311.031H239.749V304.791L245.641 311.031H248.629L242.233 304.551L247.957 298.071H245.185L239.749 304.311V298.071H237.613V304.311L232.177 298.071H229.405L235.129 304.551L228.733 311.031H231.721L237.613 304.791V311.031ZM255.879 309.387C253.551 309.387 252.075 307.827 251.883 305.151H261.819C262.011 300.543 259.803 297.711 255.831 297.711C252.075 297.711 249.591 300.387 249.591 304.551C249.591 308.667 252.087 311.391 255.879 311.391C258.519 311.391 260.583 310.095 261.603 307.791L259.539 307.107C258.831 308.571 257.667 309.387 255.879 309.387ZM251.931 303.435C252.243 301.035 253.635 299.655 255.831 299.655C258.051 299.655 259.407 301.011 259.599 303.435H251.931ZM270.239 311.031V300.087H274.691V298.071H263.651V300.087H268.103V311.031H270.239ZM282.491 311.391C286.343 311.391 288.743 308.607 288.743 304.539C288.743 300.507 286.367 297.711 282.491 297.711C278.675 297.711 276.251 300.483 276.251 304.539C276.251 308.571 278.639 311.391 282.491 311.391ZM282.491 309.363C279.911 309.363 278.519 307.503 278.519 304.539C278.519 301.611 279.851 299.739 282.491 299.739C285.107 299.739 286.475 301.563 286.475 304.539C286.475 307.467 285.107 309.363 282.491 309.363ZM297.025 311.031C300.157 311.031 301.837 309.783 301.837 307.443C301.837 305.835 300.889 304.671 299.665 304.323C300.733 303.915 301.453 302.991 301.453 301.551C301.453 299.271 299.821 298.071 296.797 298.071H291.613V311.031H297.025ZM296.797 299.835C298.609 299.835 299.389 300.375 299.389 301.755C299.389 303.003 298.477 303.543 297.157 303.543H293.617V299.835H296.797ZM293.629 309.267V305.283H297.373C298.729 305.283 299.773 305.847 299.773 307.299C299.773 308.667 298.813 309.267 296.989 309.267H293.629ZM314.919 311.031C318.051 311.031 319.731 309.783 319.731 307.443C319.731 305.835 318.783 304.671 317.559 304.323C318.627 303.915 319.347 302.991 319.347 301.551C319.347 299.271 317.715 298.071 314.691 298.071H309.507V311.031H314.919ZM314.691 299.835C316.503 299.835 317.283 300.375 317.283 301.755C317.283 303.003 316.371 303.543 315.051 303.543H311.511V299.835H314.691ZM311.523 309.267V305.283H315.267C316.623 305.283 317.667 305.847 317.667 307.299C317.667 308.667 316.707 309.267 314.883 309.267H311.523ZM327.401 311.031H329.537V304.791L335.429 311.031H338.417L332.021 304.551L337.745 298.071H334.973L329.537 304.311V298.071H327.401V311.031ZM344.976 297.711C342.156 297.711 340.26 298.995 339.624 301.359L341.616 301.863C342.048 300.351 343.128 299.643 344.952 299.643C347.088 299.643 348.096 300.639 348.108 302.907L344.376 303.363C341.148 303.771 339.144 304.923 339.144 307.587C339.144 309.927 340.86 311.391 343.584 311.391C345.672 311.391 347.208 310.563 348.108 308.991V311.031H350.244V303.195C350.244 299.511 348.516 297.711 344.976 297.711ZM348.108 304.575V304.611C348.108 305.187 348.108 305.967 347.904 306.615C347.496 308.379 346.044 309.543 344.028 309.543C342.204 309.543 341.256 308.823 341.256 307.443C341.256 306.027 342.252 305.307 344.616 305.007L348.108 304.575ZM359.112 311.031V300.087H363.564V298.071H352.524V300.087H356.976V311.031H359.112ZM370.769 297.711C367.949 297.711 366.053 298.995 365.417 301.359L367.409 301.863C367.841 300.351 368.921 299.643 370.745 299.643C372.881 299.643 373.889 300.639 373.901 302.907L370.169 303.363C366.941 303.771 364.937 304.923 364.937 307.587C364.937 309.927 366.653 311.391 369.377 311.391C371.465 311.391 373.001 310.563 373.901 308.991V311.031H376.037V303.195C376.037 299.511 374.309 297.711 370.769 297.711ZM373.901 304.575V304.611C373.901 305.187 373.901 305.967 373.697 306.615C373.289 308.379 371.837 309.543 369.821 309.543C367.997 309.543 367.049 308.823 367.049 307.443C367.049 306.027 368.045 305.307 370.409 305.007L373.901 304.575ZM378.197 311.199C378.617 311.331 379.013 311.391 379.373 311.391C381.425 311.391 382.469 309.303 382.469 304.707V300.087H387.869V311.031H390.005V298.071H380.465V304.107C380.465 307.467 380.069 309.435 378.737 309.435C378.569 309.435 378.389 309.399 378.197 309.339V311.199ZM399.126 311.391C402.978 311.391 405.378 308.607 405.378 304.539C405.378 300.507 403.002 297.711 399.126 297.711C395.31 297.711 392.886 300.483 392.886 304.539C392.886 308.571 395.274 311.391 399.126 311.391ZM399.126 309.363C396.546 309.363 395.154 307.503 395.154 304.539C395.154 301.611 396.486 299.739 399.126 299.739C401.742 299.739 403.11 301.563 403.11 304.539C403.11 307.467 401.742 309.363 399.126 309.363ZM410.408 311.031V300.087H416.72V298.071H408.26V311.031H410.408ZM424.802 309.387C422.474 309.387 420.998 307.827 420.806 305.151H430.742C430.934 300.543 428.726 297.711 424.754 297.711C420.998 297.711 418.514 300.387 418.514 304.551C418.514 308.667 421.01 311.391 424.802 311.391C427.442 311.391 429.506 310.095 430.526 307.791L428.462 307.107C427.754 308.571 426.59 309.387 424.802 309.387ZM420.854 303.435C421.166 301.035 422.558 299.655 424.754 299.655C426.974 299.655 428.33 301.011 428.522 303.435H420.854ZM47.5187 331.711C44.6987 331.711 42.8027 332.995 42.1667 335.359L44.1587 335.863C44.5907 334.351 45.6707 333.643 47.4947 333.643C49.6307 333.643 50.6387 334.639 50.6507 336.907L46.9187 337.363C43.6907 337.771 41.6867 338.923 41.6867 341.587C41.6867 343.927 43.4027 345.391 46.1267 345.391C48.2147 345.391 49.7507 344.563 50.6507 342.991V345.031H52.7867V337.195C52.7867 333.511 51.0587 331.711 47.5187 331.711ZM50.6507 338.575V338.611C50.6507 339.187 50.6507 339.967 50.4467 340.615C50.0387 342.379 48.5867 343.543 46.5707 343.543C44.7467 343.543 43.7987 342.823 43.7987 341.443C43.7987 340.027 44.7947 339.307 47.1587 339.007L50.6507 338.575ZM61.5467 345.031C64.6787 345.031 66.3587 343.783 66.3587 341.443C66.3587 339.835 65.4107 338.671 64.1867 338.323C65.2547 337.915 65.9747 336.991 65.9747 335.551C65.9747 333.271 64.3427 332.071 61.3187 332.071H56.1347V345.031H61.5467ZM61.3187 333.835C63.1307 333.835 63.9107 334.375 63.9107 335.755C63.9107 337.003 62.9987 337.543 61.6787 337.543H58.1387V333.835H61.3187ZM58.1507 343.267V339.283H61.8947C63.2507 339.283 64.2947 339.847 64.2947 341.299C64.2947 342.667 63.3347 343.267 61.5107 343.267H58.1507ZM74.5041 345.031V334.087H78.9561V332.071H67.9161V334.087H72.3681V345.031H74.5041ZM86.7561 345.391C90.6081 345.391 93.0081 342.607 93.0081 338.539C93.0081 334.507 90.6321 331.711 86.7561 331.711C82.9401 331.711 80.5161 334.483 80.5161 338.539C80.5161 342.571 82.9041 345.391 86.7561 345.391ZM86.7561 343.363C84.1761 343.363 82.7841 341.503 82.7841 338.539C82.7841 335.611 84.1161 333.739 86.7561 333.739C89.3721 333.739 90.7401 335.563 90.7401 338.539C90.7401 341.467 89.3721 343.363 86.7561 343.363ZM98.0262 350.791V343.003C98.8542 344.491 100.246 345.391 102.358 345.391C105.922 345.391 108.25 342.607 108.25 338.539C108.25 334.531 105.946 331.711 102.358 331.711C100.258 331.711 98.8542 332.599 98.0262 334.099V332.071H95.8902V350.791H98.0262ZM101.998 343.363C99.3822 343.363 98.0262 341.467 98.0262 338.539C98.0262 335.707 99.2862 333.739 101.998 333.739C104.65 333.739 105.982 335.623 105.982 338.539C105.982 341.395 104.674 343.363 101.998 343.363ZM116.59 345.391C119.266 345.391 121.222 344.083 122.134 341.659L119.974 341.095C119.398 342.547 118.294 343.363 116.59 343.363C114.01 343.363 112.678 341.443 112.678 338.551C112.678 335.623 114.022 333.739 116.59 333.739C118.174 333.739 119.47 334.615 120.022 336.115L122.134 335.479C121.45 333.151 119.35 331.711 116.614 331.711C112.774 331.711 110.41 334.435 110.41 338.551C110.41 342.619 112.738 345.391 116.59 345.391ZM124.811 345.031H126.947V338.791L132.839 345.031H135.827L129.431 338.551L135.155 332.071H132.383L126.947 338.311V332.071H124.811V345.031ZM145.746 332.071L139.398 341.683V332.071H137.262V345.031H139.398L145.746 335.419V345.031H147.882V332.071H145.746ZM152.599 345.031L156.247 340.135L159.871 345.031H162.427L157.459 338.479L162.307 332.071H159.763L156.247 336.823L152.695 332.071H150.151L154.999 338.479L150.043 345.031H152.599ZM175.095 345.391C177.771 345.391 179.727 344.083 180.639 341.659L178.479 341.095C177.903 342.547 176.799 343.363 175.095 343.363C172.515 343.363 171.183 341.443 171.183 338.551C171.183 335.623 172.527 333.739 175.095 333.739C176.679 333.739 177.975 334.615 178.527 336.115L180.639 335.479C179.955 333.151 177.855 331.711 175.119 331.711C171.279 331.711 168.915 334.435 168.915 338.551C168.915 342.619 171.243 345.391 175.095 345.391ZM195.616 347.791V343.015H193.936V332.071H191.8V343.015H185.452V332.071H183.316V345.031H193.48V347.791H195.616ZM203.339 343.387C201.011 343.387 199.535 341.827 199.343 339.151H209.279C209.471 334.543 207.263 331.711 203.291 331.711C199.535 331.711 197.051 334.387 197.051 338.551C197.051 342.667 199.547 345.391 203.339 345.391C205.979 345.391 208.043 344.095 209.063 341.791L206.999 341.107C206.291 342.571 205.127 343.387 203.339 343.387ZM199.391 337.435C199.703 335.035 201.095 333.655 203.291 333.655C205.511 333.655 206.867 335.011 207.059 337.435H199.391ZM214.315 345.031V339.559H221.131V345.031H223.267V332.071H221.131V337.543H214.315V332.071H212.179V345.031H214.315ZM231.98 331.711C229.16 331.711 227.264 332.995 226.628 335.359L228.62 335.863C229.052 334.351 230.132 333.643 231.956 333.643C234.092 333.643 235.1 334.639 235.112 336.907L231.38 337.363C228.152 337.771 226.148 338.923 226.148 341.587C226.148 343.927 227.864 345.391 230.588 345.391C232.676 345.391 234.212 344.563 235.112 342.991V345.031H237.248V337.195C237.248 333.511 235.52 331.711 231.98 331.711ZM235.112 338.575V338.611C235.112 339.187 235.112 339.967 234.908 340.615C234.5 342.379 233.048 343.543 231.032 343.543C229.208 343.543 228.26 342.823 228.26 341.443C228.26 340.027 229.256 339.307 231.62 339.007L235.112 338.575ZM242.744 350.791V343.003C243.572 344.491 244.964 345.391 247.076 345.391C250.64 345.391 252.968 342.607 252.968 338.539C252.968 334.531 250.664 331.711 247.076 331.711C244.976 331.711 243.572 332.599 242.744 334.099V332.071H240.608V350.791H242.744ZM246.716 343.363C244.1 343.363 242.744 341.467 242.744 338.539C242.744 335.707 244.004 333.739 246.716 333.739C249.368 333.739 250.7 335.623 250.7 338.539C250.7 341.395 249.392 343.363 246.716 343.363ZM264.32 332.071L257.972 341.683V332.071H255.836V345.031H257.972L264.32 335.419V345.031H266.456V332.071H264.32ZM275.625 343.387C273.297 343.387 271.821 341.827 271.629 339.151H281.565C281.757 334.543 279.549 331.711 275.577 331.711C271.821 331.711 269.337 334.387 269.337 338.551C269.337 342.667 271.833 345.391 275.625 345.391C278.265 345.391 280.329 344.095 281.349 341.791L279.285 341.107C278.577 342.571 277.413 343.387 275.625 343.387ZM271.677 337.435C271.989 335.035 273.381 333.655 275.577 333.655C277.797 333.655 279.153 335.011 279.345 337.435H271.677ZM289.877 345.031C293.009 345.031 294.689 343.783 294.689 341.443C294.689 339.835 293.741 338.671 292.517 338.323C293.585 337.915 294.305 336.991 294.305 335.551C294.305 333.271 292.673 332.071 289.649 332.071H284.465V345.031H289.877ZM289.649 333.835C291.461 333.835 292.241 334.375 292.241 335.755C292.241 337.003 291.329 337.543 290.009 337.543H286.469V333.835H289.649ZM286.481 343.267V339.283H290.225C291.581 339.283 292.625 339.847 292.625 341.299C292.625 342.667 291.665 343.267 289.841 343.267H286.481ZM307.831 345.391C310.507 345.391 312.463 344.083 313.375 341.659L311.215 341.095C310.639 342.547 309.535 343.363 307.831 343.363C305.251 343.363 303.919 341.443 303.919 338.551C303.919 335.623 305.263 333.739 307.831 333.739C309.415 333.739 310.711 334.615 311.263 336.115L313.375 335.479C312.691 333.151 310.591 331.711 307.855 331.711C304.015 331.711 301.651 334.435 301.651 338.551C301.651 342.619 303.979 345.391 307.831 345.391ZM329.581 332.071L323.233 341.683V332.071H321.097V345.031H323.233L329.581 335.419V345.031H331.717V332.071H329.581ZM337.441 345.031V339.559H344.257V345.031H346.393V332.071H344.257V337.543H337.441V332.071H335.305V345.031H337.441ZM355.455 345.391C358.131 345.391 360.087 344.083 360.999 341.659L358.839 341.095C358.263 342.547 357.159 343.363 355.455 343.363C352.875 343.363 351.543 341.443 351.543 338.551C351.543 335.623 352.887 333.739 355.455 333.739C357.039 333.739 358.335 334.615 358.887 336.115L360.999 335.479C360.315 333.151 358.215 331.711 355.479 331.711C351.639 331.711 349.275 334.435 349.275 338.551C349.275 342.619 351.603 345.391 355.455 345.391ZM368.727 345.031V334.087H373.179V332.071H362.139V334.087H366.591V345.031H368.727ZM377.83 350.791V343.003C378.658 344.491 380.05 345.391 382.162 345.391C385.726 345.391 388.054 342.607 388.054 338.539C388.054 334.531 385.75 331.711 382.162 331.711C380.062 331.711 378.658 332.599 377.83 334.099V332.071H375.694V350.791H377.83ZM381.802 343.363C379.186 343.363 377.83 341.467 377.83 338.539C377.83 335.707 379.09 333.739 381.802 333.739C384.454 333.739 385.786 335.623 385.786 338.539C385.786 341.395 384.478 343.363 381.802 343.363ZM394.458 350.791L401.514 332.071H399.342L395.55 342.271L391.506 332.071H389.262L394.518 344.983L392.382 350.791H394.458ZM403.724 345.031H405.86V338.791L411.752 345.031H414.74L408.344 338.551L414.068 332.071H411.296L405.86 338.311V332.071H403.724V345.031ZM428.475 347.791V343.015H426.795V332.071H424.659V343.015H418.311V332.071H416.175V345.031H426.339V347.791H428.475ZM439.102 332.071L432.754 341.683V332.071H430.618V345.031H432.754L439.102 335.419V345.031H441.238V332.071H439.102ZM446.471 345.031L448.787 340.267H452.483V345.031H454.619V332.071H448.811C445.751 332.071 444.227 333.823 444.227 336.163C444.227 337.891 445.043 339.295 446.699 339.919L444.227 345.031H446.471ZM452.483 333.871V338.455H449.087C447.227 338.455 446.375 337.483 446.375 336.163C446.375 334.843 447.227 333.871 449.087 333.871H452.483ZM460.351 345.031V336.235L463.831 343.099H465.631L469.111 336.235V345.031H471.247V332.071H469.111L464.731 340.663L460.351 332.071H458.215V345.031H460.351ZM483.322 332.071L476.974 341.683V332.071H474.838V345.031H476.974L483.322 335.419V345.031H485.458V332.071H483.322Z" fill="white"/>
</svg>
