<svg width="700" height="389" viewBox="0 0 700 389" fill="none" xmlns="http://www.w3.org/2000/svg">
<rect x="0.846924" width="699.153" height="388.832" rx="32" fill="#0A7140"/>
<path d="M41.2428 70.4733C41.2428 63.0367 47.2715 57.0081 54.7081 57.0081H81.6387C89.0754 57.0081 95.104 63.0367 95.104 70.4733C95.104 77.91 89.0754 83.9386 81.6387 83.9386H54.7081C47.2715 83.9386 41.2428 77.91 41.2428 70.4733Z" fill="#39CA85"/>
<path d="M122.035 70.4734C122.035 85.3468 109.977 97.404 95.104 97.404C80.2306 97.404 68.1734 85.3468 68.1734 70.4734C68.1734 55.6001 80.2306 43.5428 95.104 43.5428C109.977 43.5428 122.035 55.6001 122.035 70.4734Z" fill="black"/>
<path d="M85.5229 148.986H76.1269L63.9589 174.834L51.5749 148.986H42.0709L59.5309 184.158L51.6829 200.826H61.1149L85.5229 148.986ZM102.699 201.906C111.375 201.906 117.603 197.514 120.015 189.594L111.159 187.614C109.827 191.574 107.343 193.77 102.699 193.77C96.1834 193.77 92.8354 188.802 92.8354 181.386C92.8354 174.15 96.0034 169.002 102.699 169.002C106.695 169.002 110.043 171.45 111.375 175.626L120.015 173.286C118.179 165.618 111.663 160.866 102.807 160.866C91.0714 160.866 83.6554 169.398 83.6554 181.386C83.6554 193.23 90.7834 201.906 102.699 201.906ZM144.687 200.826V170.01H157.395V161.946H123.303V170.01H136.011V200.826H144.687ZM173.627 218.106V195.606C175.967 199.53 179.783 201.906 185.579 201.906C195.767 201.906 203.183 193.518 203.183 181.386C203.183 169.362 195.803 160.866 185.579 160.866C179.783 160.866 175.967 163.206 173.627 167.166V161.946H164.951V218.106H173.627ZM183.779 193.77C177.083 193.77 173.627 188.946 173.627 181.386C173.627 174.042 176.795 169.002 183.779 169.002C190.583 169.002 194.003 173.862 194.003 181.386C194.003 188.694 190.655 193.77 183.779 193.77ZM228.968 201.906C240.596 201.906 248.372 193.518 248.372 181.386C248.372 169.254 240.632 160.866 228.968 160.866C217.448 160.866 209.636 169.254 209.636 181.386C209.636 193.482 217.376 201.906 228.968 201.906ZM228.968 193.77C222.452 193.77 218.816 189.162 218.816 181.386C218.816 173.574 222.344 169.002 228.968 169.002C235.556 169.002 239.192 173.574 239.192 181.386C239.192 189.09 235.52 193.77 228.968 193.77ZM274.987 157.554C276.967 157.554 278.803 157.05 280.495 156.078C283.807 154.134 285.895 150.642 285.895 146.646H279.127C279.127 148.95 277.291 150.786 274.987 150.786C272.683 150.786 270.847 148.95 270.847 146.646H264.079C264.079 148.626 264.583 150.462 265.555 152.118C267.499 155.466 270.991 157.554 274.987 157.554ZM282.043 161.946L265.627 187.506V161.946H256.951V200.826H265.627L282.043 175.266V200.826H290.719V161.946H282.043ZM318.432 201.906C327.108 201.906 333.336 197.514 335.748 189.594L326.892 187.614C325.56 191.574 323.076 193.77 318.432 193.77C311.916 193.77 308.568 188.802 308.568 181.386C308.568 174.15 311.736 169.002 318.432 169.002C322.428 169.002 325.776 171.45 327.108 175.626L335.748 173.286C333.912 165.618 327.396 160.866 318.54 160.866C306.804 160.866 299.388 169.398 299.388 181.386C299.388 193.23 306.516 201.906 318.432 201.906ZM360.42 200.826V170.01H373.128V161.946H339.036V170.01H351.744V200.826H360.42ZM398.503 200.826C407.539 200.826 412.435 197.046 412.435 190.026C412.435 185.202 409.879 181.71 406.063 180.666C409.195 179.442 411.211 176.706 411.211 172.422C411.211 165.654 406.279 161.946 397.315 161.946H380.611V200.826H398.503ZM397.387 168.75C400.987 168.75 403.039 169.974 403.039 173.25C403.039 176.418 400.843 177.642 397.747 177.642H388.675V168.75H397.387ZM388.675 194.022V184.338H398.827C401.995 184.338 404.299 185.814 404.299 189.198C404.299 192.474 402.067 194.022 398.467 194.022H388.675ZM436.017 160.866C427.485 160.866 421.653 164.718 419.601 171.774L427.485 173.898C428.673 170.19 431.337 168.498 436.017 168.498C441.021 168.498 443.649 170.838 443.793 175.986L433.569 177.246C423.597 178.506 418.197 182.61 418.197 190.242C418.197 197.262 423.381 201.906 431.265 201.906C437.097 201.906 441.273 199.782 443.829 195.606V200.826H452.469V177.858C452.469 166.374 447.141 160.866 436.017 160.866ZM443.829 182.322V182.682C443.829 184.41 443.793 186.678 443.001 188.55C441.705 192.042 438.105 194.67 433.353 194.67C428.961 194.67 426.693 192.942 426.693 189.522C426.693 186.066 429.249 184.122 434.793 183.438L443.829 182.322Z" fill="white"/>
<path d="M55.2709 259.751H52.9309L48.5389 268.955L43.9669 259.751H41.6029L47.4349 271.259L44.6869 277.031H46.9909L55.2709 259.751ZM61.2806 277.391C64.6166 277.391 66.5606 275.711 66.5606 273.311C66.5606 271.811 65.6726 270.683 64.5206 270.323C65.6126 269.843 66.2126 268.967 66.2126 267.647C66.2126 265.199 64.4006 263.711 61.2686 263.711C58.7846 263.711 56.6006 264.659 55.8926 267.551L57.9326 267.923C58.2926 266.471 59.2646 265.619 61.2206 265.619C63.1046 265.619 64.1006 266.399 64.1006 267.767C64.1006 268.883 63.2606 269.495 61.8206 269.495H59.8286V271.259H61.8206C63.3206 271.259 64.4366 271.823 64.4366 273.287C64.4366 274.643 63.2966 275.483 61.2206 275.483C59.2166 275.483 57.9926 274.583 57.7166 272.771L55.6766 273.143C56.1806 276.059 58.2566 277.391 61.2806 277.391ZM71.5659 277.031V271.559H78.3819V277.031H80.5179V264.071H78.3819V269.543H71.5659V264.071H69.4299V277.031H71.5659ZM89.2314 263.711C86.4114 263.711 84.5154 264.995 83.8794 267.359L85.8714 267.863C86.3034 266.351 87.3834 265.643 89.2074 265.643C91.3434 265.643 92.3514 266.639 92.3634 268.907L88.6314 269.363C85.4034 269.771 83.3994 270.923 83.3994 273.587C83.3994 275.927 85.1154 277.391 87.8394 277.391C89.9274 277.391 91.4634 276.563 92.3634 274.991V277.031H94.4994V269.195C94.4994 265.511 92.7714 263.711 89.2314 263.711ZM92.3634 270.575V270.611C92.3634 271.187 92.3634 271.967 92.1594 272.615C91.7514 274.379 90.2994 275.543 88.2834 275.543C86.4594 275.543 85.5114 274.823 85.5114 273.443C85.5114 272.027 86.5074 271.307 88.8714 271.007L92.3634 270.575ZM103.439 262.559C104.039 262.559 104.591 262.415 105.095 262.115C106.091 261.539 106.715 260.471 106.715 259.283H104.987C104.987 260.123 104.315 260.831 103.439 260.831C102.599 260.831 101.891 260.123 101.891 259.283H100.163C100.163 259.871 100.307 260.423 100.607 260.927C101.183 261.935 102.251 262.559 103.439 262.559ZM106.331 264.071L99.9834 273.683V264.071H97.8474V277.031H99.9834L106.331 267.419V277.031H108.467V264.071H106.331ZM117.576 277.031V266.087H122.028V264.071H110.988V266.087H115.44V277.031H117.576ZM130.111 275.387C127.783 275.387 126.307 273.827 126.115 271.151H136.051C136.243 266.543 134.035 263.711 130.063 263.711C126.307 263.711 123.823 266.387 123.823 270.551C123.823 274.667 126.319 277.391 130.111 277.391C132.751 277.391 134.815 276.095 135.835 273.791L133.771 273.107C133.063 274.571 131.899 275.387 130.111 275.387ZM126.163 269.435C126.475 267.035 127.867 265.655 130.063 265.655C132.283 265.655 133.639 267.011 133.831 269.435H126.163ZM149.407 277.031C152.539 277.031 154.219 275.783 154.219 273.443C154.219 271.835 153.271 270.671 152.047 270.323C153.115 269.915 153.835 268.991 153.835 267.551C153.835 265.271 152.203 264.071 149.179 264.071H143.995V277.031H149.407ZM149.179 265.835C150.991 265.835 151.771 266.375 151.771 267.755C151.771 269.003 150.859 269.543 149.539 269.543H145.999V265.835H149.179ZM146.011 275.267V271.283H149.755C151.111 271.283 152.155 271.847 152.155 273.299C152.155 274.667 151.195 275.267 149.371 275.267H146.011ZM162.316 277.391C164.992 277.391 166.948 276.083 167.86 273.659L165.7 273.095C165.124 274.547 164.02 275.363 162.316 275.363C159.736 275.363 158.404 273.443 158.404 270.551C158.404 267.623 159.748 265.739 162.316 265.739C163.9 265.739 165.196 266.615 165.748 268.115L167.86 267.479C167.176 265.151 165.076 263.711 162.34 263.711C158.5 263.711 156.136 266.435 156.136 270.551C156.136 274.619 158.464 277.391 162.316 277.391ZM176.117 275.387C173.789 275.387 172.313 273.827 172.121 271.151H182.057C182.249 266.543 180.041 263.711 176.069 263.711C172.313 263.711 169.829 266.387 169.829 270.551C169.829 274.667 172.325 277.391 176.117 277.391C178.757 277.391 180.821 276.095 181.841 273.791L179.777 273.107C179.069 274.571 177.905 275.387 176.117 275.387ZM172.169 269.435C172.481 267.035 173.873 265.655 176.069 265.655C178.289 265.655 179.645 267.011 179.837 269.435H172.169ZM192.138 277.031V271.559H198.954V277.031H201.09V264.071H198.954V269.543H192.138V264.071H190.002V277.031H192.138ZM215.503 277.391C219.355 277.391 221.755 274.607 221.755 270.539C221.755 266.531 219.391 263.711 215.503 263.711C212.035 263.711 209.707 266.003 209.311 269.483H206.815V264.071H204.679V277.031H206.815V271.619H209.311C209.707 275.051 211.975 277.391 215.503 277.391ZM215.503 275.363C212.887 275.363 211.531 273.467 211.531 270.539C211.531 267.707 212.791 265.739 215.503 265.739C218.155 265.739 219.487 267.623 219.487 270.539C219.487 273.395 218.179 275.363 215.503 275.363ZM229.754 263.711C226.934 263.711 225.038 264.995 224.402 267.359L226.394 267.863C226.826 266.351 227.906 265.643 229.73 265.643C231.866 265.643 232.874 266.639 232.886 268.907L229.154 269.363C225.926 269.771 223.922 270.923 223.922 273.587C223.922 275.927 225.638 277.391 228.362 277.391C230.45 277.391 231.986 276.563 232.886 274.991V277.031H235.022V269.195C235.022 265.511 233.294 263.711 229.754 263.711ZM232.886 270.575V270.611C232.886 271.187 232.886 271.967 232.682 272.615C232.274 274.379 230.822 275.543 228.806 275.543C226.982 275.543 226.034 274.823 226.034 273.443C226.034 272.027 227.03 271.307 229.394 271.007L232.886 270.575ZM240.506 277.031V271.559H247.322V277.031H249.458V264.071H247.322V269.543H240.506V264.071H238.37V277.031H240.506ZM258.52 277.391C261.196 277.391 263.152 276.083 264.064 273.659L261.904 273.095C261.328 274.547 260.224 275.363 258.52 275.363C255.94 275.363 254.608 273.443 254.608 270.551C254.608 267.623 255.952 265.739 258.52 265.739C260.104 265.739 261.4 266.615 261.952 268.115L264.064 267.479C263.38 265.151 261.28 263.711 258.544 263.711C254.704 263.711 252.34 266.435 252.34 270.551C252.34 274.619 254.668 277.391 258.52 277.391ZM280.757 277.031V264.071H278.621V277.031H280.757ZM272.561 277.031C275.621 277.031 277.145 275.267 277.145 272.927C277.145 270.587 275.621 268.835 272.561 268.835H268.889V264.071H266.753V277.031H272.561ZM268.889 275.219V270.635H272.285C274.145 270.635 274.997 271.607 274.997 272.927C274.997 274.247 274.145 275.219 272.285 275.219H268.889ZM284.12 279.719C284.3 279.755 284.48 279.767 284.636 279.767C284.912 279.767 285.188 279.707 285.488 279.575C286.064 279.311 286.472 278.507 286.472 277.391V274.319H284.12V277.031H285.356C285.368 277.139 285.368 277.247 285.38 277.355V277.439C285.38 278.255 285.068 278.735 284.396 278.735C284.348 278.735 284.3 278.735 284.252 278.723L284.12 279.719ZM301.784 277.391C304.46 277.391 306.416 276.083 307.328 273.659L305.168 273.095C304.592 274.547 303.488 275.363 301.784 275.363C299.204 275.363 297.872 273.443 297.872 270.551C297.872 267.623 299.216 265.739 301.784 265.739C303.368 265.739 304.664 266.615 305.216 268.115L307.328 267.479C306.644 265.151 304.544 263.711 301.808 263.711C297.968 263.711 295.604 266.435 295.604 270.551C295.604 274.619 297.932 277.391 301.784 277.391ZM315.186 277.391C319.038 277.391 321.438 274.607 321.438 270.539C321.438 266.507 319.062 263.711 315.186 263.711C311.37 263.711 308.946 266.483 308.946 270.539C308.946 274.571 311.334 277.391 315.186 277.391ZM315.186 275.363C312.606 275.363 311.214 273.503 311.214 270.539C311.214 267.611 312.546 265.739 315.186 265.739C317.802 265.739 319.17 267.563 319.17 270.539C319.17 273.467 317.802 275.363 315.186 275.363ZM329.72 277.031C332.852 277.031 334.532 275.783 334.532 273.443C334.532 271.835 333.584 270.671 332.36 270.323C333.428 269.915 334.148 268.991 334.148 267.551C334.148 265.271 332.516 264.071 329.492 264.071H324.308V277.031H329.72ZM329.492 265.835C331.304 265.835 332.084 266.375 332.084 267.755C332.084 269.003 331.172 269.543 329.852 269.543H326.312V265.835H329.492ZM326.324 275.267V271.283H330.068C331.424 271.283 332.468 271.847 332.468 273.299C332.468 274.667 331.508 275.267 329.684 275.267H326.324ZM339.293 277.031V268.235L342.773 275.099H344.573L348.053 268.235V277.031H350.189V264.071H348.053L343.673 272.663L339.293 264.071H337.157V277.031H339.293ZM359.36 275.387C357.032 275.387 355.556 273.827 355.364 271.151H365.3C365.492 266.543 363.284 263.711 359.312 263.711C355.556 263.711 353.072 266.387 353.072 270.551C353.072 274.667 355.568 277.391 359.36 277.391C362 277.391 364.064 276.095 365.084 273.791L363.02 273.107C362.312 274.571 361.148 275.387 359.36 275.387ZM355.412 269.435C355.724 267.035 357.116 265.655 359.312 265.655C361.532 265.655 362.888 267.011 363.08 269.435H355.412ZM373.672 277.391C376.348 277.391 378.304 276.083 379.216 273.659L377.056 273.095C376.48 274.547 375.376 275.363 373.672 275.363C371.092 275.363 369.76 273.443 369.76 270.551C369.76 267.623 371.104 265.739 373.672 265.739C375.256 265.739 376.552 266.615 377.104 268.115L379.216 267.479C378.532 265.151 376.432 263.711 373.696 263.711C369.856 263.711 367.492 266.435 367.492 270.551C367.492 274.619 369.82 277.391 373.672 277.391ZM386.944 277.031V266.087H391.396V264.071H380.356V266.087H384.808V277.031H386.944ZM402.383 264.071L396.035 273.683V264.071H393.899V277.031H396.035L402.383 267.419V277.031H404.519V264.071H402.383ZM410.243 277.031V268.235L413.723 275.099H415.523L419.003 268.235V277.031H421.139V264.071H419.003L414.623 272.663L410.243 264.071H408.107V277.031H410.243ZM430.262 277.391C434.114 277.391 436.514 274.607 436.514 270.539C436.514 266.507 434.138 263.711 430.262 263.711C426.446 263.711 424.022 266.483 424.022 270.539C424.022 274.571 426.41 277.391 430.262 277.391ZM430.262 275.363C427.682 275.363 426.29 273.503 426.29 270.539C426.29 267.611 427.622 265.739 430.262 265.739C432.878 265.739 434.246 267.563 434.246 270.539C434.246 273.467 432.878 275.363 430.262 275.363ZM444.856 277.391C447.532 277.391 449.488 276.083 450.4 273.659L448.24 273.095C447.664 274.547 446.56 275.363 444.856 275.363C442.276 275.363 440.944 273.443 440.944 270.551C440.944 267.623 442.288 265.739 444.856 265.739C446.44 265.739 447.736 266.615 448.288 268.115L450.4 267.479C449.716 265.151 447.616 263.711 444.88 263.711C441.04 263.711 438.676 266.435 438.676 270.551C438.676 274.619 441.004 277.391 444.856 277.391ZM458.129 277.031V266.087H462.581V264.071H451.541V266.087H455.993V277.031H458.129ZM470.903 277.031C473.963 277.031 475.475 275.267 475.475 272.927C475.475 270.587 473.963 268.835 470.903 268.835H467.231V264.071H465.095V277.031H470.903ZM467.231 275.219V270.635H470.627C472.487 270.635 473.339 271.607 473.339 272.927C473.339 274.247 472.487 275.219 470.627 275.219H467.231ZM491.883 264.071L485.535 273.683V264.071H483.399V277.031H485.535L491.883 267.419V277.031H494.019V264.071H491.883ZM504.8 282.791V275.003C505.628 276.491 507.02 277.391 509.132 277.391C512.696 277.391 515.024 274.607 515.024 270.539C515.024 266.531 512.72 263.711 509.132 263.711C507.032 263.711 505.628 264.599 504.8 266.099V264.071H502.664V282.791H504.8ZM508.772 275.363C506.156 275.363 504.8 273.467 504.8 270.539C504.8 267.707 506.06 265.739 508.772 265.739C511.424 265.739 512.756 267.623 512.756 270.539C512.756 273.395 511.448 275.363 508.772 275.363ZM523.472 275.387C521.144 275.387 519.668 273.827 519.476 271.151H529.412C529.604 266.543 527.396 263.711 523.424 263.711C519.668 263.711 517.184 266.387 517.184 270.551C517.184 274.667 519.68 277.391 523.472 277.391C526.112 277.391 528.176 276.095 529.196 273.791L527.132 273.107C526.424 274.571 525.26 275.387 523.472 275.387ZM519.524 269.435C519.836 267.035 521.228 265.655 523.424 265.655C525.644 265.655 527 267.011 527.192 269.435H519.524ZM537.904 262.559C538.504 262.559 539.056 262.415 539.56 262.115C540.556 261.539 541.18 260.471 541.18 259.283H539.452C539.452 260.123 538.78 260.831 537.904 260.831C537.064 260.831 536.356 260.123 536.356 259.283H534.628C534.628 259.871 534.772 260.423 535.072 260.927C535.648 261.935 536.716 262.559 537.904 262.559ZM540.796 264.071L534.448 273.683V264.071H532.312V277.031H534.448L540.796 267.419V277.031H542.932V264.071H540.796ZM552.041 277.031V266.087H556.493V264.071H545.453V266.087H549.905V277.031H552.041ZM567.479 264.071L561.131 273.683V264.071H558.995V277.031H561.131L567.479 267.419V277.031H569.615V264.071H567.479ZM575.34 277.031V271.559H582.156V277.031H584.292V264.071H582.156V269.543H575.34V264.071H573.204V277.031H575.34ZM590.042 277.031V266.087H596.354V264.071H587.894V277.031H590.042ZM46.7989 316.791L53.8549 298.071H51.6829L47.8909 308.271L43.8469 298.071H41.6029L46.8589 310.983L44.7229 316.791H46.7989ZM61.0682 311.391C63.7442 311.391 65.7002 310.083 66.6122 307.659L64.4522 307.095C63.8762 308.547 62.7722 309.363 61.0682 309.363C58.4882 309.363 57.1562 307.443 57.1562 304.551C57.1562 301.623 58.5002 299.739 61.0682 299.739C62.6522 299.739 63.9482 300.615 64.5002 302.115L66.6122 301.479C65.9282 299.151 63.8282 297.711 61.0922 297.711C57.2522 297.711 54.8882 300.435 54.8882 304.551C54.8882 308.619 57.2162 311.391 61.0682 311.391ZM74.3405 311.031V300.087H78.7925V298.071H67.7525V300.087H72.2045V311.031H74.3405ZM83.4429 316.791V309.003C84.2709 310.491 85.6629 311.391 87.7749 311.391C91.3389 311.391 93.6669 308.607 93.6669 304.539C93.6669 300.531 91.3629 297.711 87.7749 297.711C85.6749 297.711 84.2709 298.599 83.4429 300.099V298.071H81.3069V316.791H83.4429ZM87.4149 309.363C84.7989 309.363 83.4429 307.467 83.4429 304.539C83.4429 301.707 84.7029 299.739 87.4149 299.739C90.0669 299.739 91.3989 301.623 91.3989 304.539C91.3989 307.395 90.0909 309.363 87.4149 309.363ZM102.067 311.391C105.919 311.391 108.319 308.607 108.319 304.539C108.319 300.507 105.943 297.711 102.067 297.711C98.2509 297.711 95.8269 300.483 95.8269 304.539C95.8269 308.571 98.2149 311.391 102.067 311.391ZM102.067 309.363C99.4869 309.363 98.0949 307.503 98.0949 304.539C98.0949 301.611 99.4269 299.739 102.067 299.739C104.683 299.739 106.051 301.563 106.051 304.539C106.051 307.467 104.683 309.363 102.067 309.363ZM116.781 296.559C117.381 296.559 117.933 296.415 118.437 296.115C119.433 295.539 120.057 294.471 120.057 293.283H118.329C118.329 294.123 117.657 294.831 116.781 294.831C115.941 294.831 115.233 294.123 115.233 293.283H113.505C113.505 293.871 113.649 294.423 113.949 294.927C114.525 295.935 115.593 296.559 116.781 296.559ZM119.673 298.071L113.325 307.683V298.071H111.189V311.031H113.325L119.673 301.419V311.031H121.809V298.071H119.673ZM130.87 311.391C133.546 311.391 135.502 310.083 136.414 307.659L134.254 307.095C133.678 308.547 132.574 309.363 130.87 309.363C128.29 309.363 126.958 307.443 126.958 304.551C126.958 301.623 128.302 299.739 130.87 299.739C132.454 299.739 133.75 300.615 134.302 302.115L136.414 301.479C135.73 299.151 133.63 297.711 130.894 297.711C127.054 297.711 124.69 300.435 124.69 304.551C124.69 308.619 127.018 311.391 130.87 311.391ZM144.142 311.031V300.087H148.594V298.071H137.554V300.087H142.006V311.031H144.142ZM156.508 311.031C159.64 311.031 161.32 309.783 161.32 307.443C161.32 305.835 160.372 304.671 159.148 304.323C160.216 303.915 160.936 302.991 160.936 301.551C160.936 299.271 159.304 298.071 156.28 298.071H151.096V311.031H156.508ZM156.28 299.835C158.092 299.835 158.872 300.375 158.872 301.755C158.872 303.003 157.96 303.543 156.64 303.543H153.1V299.835H156.28ZM153.112 309.267V305.283H156.856C158.212 305.283 159.256 305.847 159.256 307.299C159.256 308.667 158.296 309.267 156.472 309.267H153.112ZM169.07 297.711C166.25 297.711 164.354 298.995 163.718 301.359L165.71 301.863C166.142 300.351 167.222 299.643 169.046 299.643C171.182 299.643 172.19 300.639 172.202 302.907L168.47 303.363C165.242 303.771 163.238 304.923 163.238 307.587C163.238 309.927 164.954 311.391 167.678 311.391C169.766 311.391 171.302 310.563 172.202 308.991V311.031H174.338V303.195C174.338 299.511 172.61 297.711 169.07 297.711ZM172.202 304.575V304.611C172.202 305.187 172.202 305.967 171.998 306.615C171.59 308.379 170.138 309.543 168.122 309.543C166.298 309.543 165.35 308.823 165.35 307.443C165.35 306.027 166.346 305.307 168.71 305.007L172.202 304.575ZM184.867 311.031V300.087H191.095V311.031H193.231V298.071H182.731V311.031H184.867ZM202.402 309.387C200.074 309.387 198.598 307.827 198.406 305.151H208.342C208.534 300.543 206.326 297.711 202.354 297.711C198.598 297.711 196.114 300.387 196.114 304.551C196.114 308.667 198.61 311.391 202.402 311.391C205.042 311.391 207.106 310.095 208.126 307.791L206.062 307.107C205.354 308.571 204.19 309.387 202.402 309.387ZM198.454 303.435C198.766 301.035 200.158 299.655 202.354 299.655C204.574 299.655 205.93 301.011 206.122 303.435H198.454ZM213.39 316.791V309.003C214.218 310.491 215.61 311.391 217.722 311.391C221.286 311.391 223.614 308.607 223.614 304.539C223.614 300.531 221.31 297.711 217.722 297.711C215.622 297.711 214.218 298.599 213.39 300.099V298.071H211.254V316.791H213.39ZM217.362 309.363C214.746 309.363 213.39 307.467 213.39 304.539C213.39 301.707 214.65 299.739 217.362 299.739C220.014 299.739 221.346 301.623 221.346 304.539C221.346 307.395 220.038 309.363 217.362 309.363ZM232.062 309.387C229.734 309.387 228.258 307.827 228.066 305.151H238.002C238.194 300.543 235.986 297.711 232.014 297.711C228.258 297.711 225.774 300.387 225.774 304.551C225.774 308.667 228.27 311.391 232.062 311.391C234.702 311.391 236.766 310.095 237.786 307.791L235.722 307.107C235.014 308.571 233.85 309.387 232.062 309.387ZM228.114 303.435C228.426 301.035 229.818 299.655 232.014 299.655C234.234 299.655 235.59 301.011 235.782 303.435H228.114ZM239.953 313.791H242.089V311.031H251.389V313.791H253.525V309.015H251.845V298.071H242.185V302.847C242.185 305.535 242.029 308.055 241.213 309.015H239.953V313.791ZM243.481 309.015C243.913 308.043 244.189 306.147 244.189 303.975V300.087H249.709V309.015H243.481ZM263.346 311.031V300.087H269.574V311.031H271.71V298.071H261.21V311.031H263.346ZM280.833 311.391C284.685 311.391 287.085 308.607 287.085 304.539C287.085 300.507 284.709 297.711 280.833 297.711C277.017 297.711 274.593 300.483 274.593 304.539C274.593 308.571 276.981 311.391 280.833 311.391ZM280.833 309.363C278.253 309.363 276.861 307.503 276.861 304.539C276.861 301.611 278.193 299.739 280.833 299.739C283.449 299.739 284.817 301.563 284.817 304.539C284.817 307.467 283.449 309.363 280.833 309.363ZM289.955 311.031H292.091V304.791L297.983 311.031H300.971L294.575 304.551L300.299 298.071H297.527L292.091 304.311V298.071H289.955V311.031ZM306.294 316.791L313.35 298.071H311.178L307.386 308.271L303.342 298.071H301.098L306.354 310.983L304.218 316.791H306.294ZM317.696 311.031V300.087H323.924V311.031H326.06V298.071H315.56V311.031H317.696ZM329.652 311.031H331.788V304.791L337.68 311.031H340.668L334.272 304.551L339.996 298.071H337.224L331.788 304.311V298.071H329.652V311.031ZM347.4 311.391C351.252 311.391 353.652 308.607 353.652 304.539C353.652 300.507 351.276 297.711 347.4 297.711C343.584 297.711 341.16 300.483 341.16 304.539C341.16 308.571 343.548 311.391 347.4 311.391ZM347.4 309.363C344.82 309.363 343.428 307.503 343.428 304.539C343.428 301.611 344.76 299.739 347.4 299.739C350.016 299.739 351.384 301.563 351.384 304.539C351.384 307.467 350.016 309.363 347.4 309.363ZM362.114 296.559C362.714 296.559 363.266 296.415 363.77 296.115C364.766 295.539 365.39 294.471 365.39 293.283H363.662C363.662 294.123 362.99 294.831 362.114 294.831C361.274 294.831 360.566 294.123 360.566 293.283H358.838C358.838 293.871 358.982 294.423 359.282 294.927C359.858 295.935 360.926 296.559 362.114 296.559ZM365.006 298.071L358.658 307.683V298.071H356.522V311.031H358.658L365.006 301.419V311.031H367.142V298.071H365.006ZM381.308 311.391C385.16 311.391 387.56 308.607 387.56 304.539C387.56 300.507 385.184 297.711 381.308 297.711C377.492 297.711 375.068 300.483 375.068 304.539C375.068 308.571 377.456 311.391 381.308 311.391ZM381.308 309.363C378.728 309.363 377.336 307.503 377.336 304.539C377.336 301.611 378.668 299.739 381.308 299.739C383.924 299.739 385.292 301.563 385.292 304.539C385.292 307.467 383.924 309.363 381.308 309.363ZM395.645 311.031V300.087H400.097V298.071H389.057V300.087H393.509V311.031H395.645ZM415.096 311.031H417.232V304.791L423.124 311.031H426.112L419.716 304.551L425.44 298.071H422.668L417.232 304.311V298.071H415.096V304.311L409.66 298.071H406.888L412.612 304.551L406.216 311.031H409.204L415.096 304.791V311.031ZM436.735 298.071L430.387 307.683V298.071H428.251V311.031H430.387L436.735 301.419V311.031H438.871V298.071H436.735ZM447.872 311.031C451.004 311.031 452.684 309.783 452.684 307.443C452.684 305.835 451.736 304.671 450.512 304.323C451.58 303.915 452.3 302.991 452.3 301.551C452.3 299.271 450.668 298.071 447.644 298.071H442.46V311.031H447.872ZM447.644 299.835C449.456 299.835 450.236 300.375 450.236 301.755C450.236 303.003 449.324 303.543 448.004 303.543H444.464V299.835H447.644ZM444.476 309.267V305.283H448.22C449.576 305.283 450.62 305.847 450.62 307.299C450.62 308.667 449.66 309.267 447.836 309.267H444.476ZM469.326 311.031V298.071H467.19V311.031H469.326ZM461.13 311.031C464.19 311.031 465.714 309.267 465.714 306.927C465.714 304.587 464.19 302.835 461.13 302.835H457.458V298.071H455.322V311.031H461.13ZM457.458 309.219V304.635H460.854C462.714 304.635 463.566 305.607 463.566 306.927C463.566 308.247 462.714 309.219 460.854 309.219H457.458ZM474.045 311.031L477.693 306.135L481.317 311.031H483.873L478.905 304.479L483.753 298.071H481.209L477.693 302.823L474.141 298.071H471.597L476.445 304.479L471.489 311.031H474.045ZM45.0469 345.031V334.087H51.2749V345.031H53.4109V332.071H42.9109V345.031H45.0469ZM62.5344 345.391C66.3864 345.391 68.7864 342.607 68.7864 338.539C68.7864 334.507 66.4104 331.711 62.5344 331.711C58.7184 331.711 56.2944 334.483 56.2944 338.539C56.2944 342.571 58.6824 345.391 62.5344 345.391ZM62.5344 343.363C59.9544 343.363 58.5624 341.503 58.5624 338.539C58.5624 335.611 59.8944 333.739 62.5344 333.739C65.1504 333.739 66.5184 335.563 66.5184 338.539C66.5184 341.467 65.1504 343.363 62.5344 343.363ZM70.4685 345.199C70.8885 345.331 71.2845 345.391 71.6445 345.391C73.6965 345.391 74.7405 343.303 74.7405 338.707V334.087H80.1405V345.031H82.2765V332.071H72.7365V338.107C72.7365 341.467 72.3405 343.435 71.0085 343.435C70.8405 343.435 70.6605 343.399 70.4685 343.339V345.199ZM91.6852 345.031C94.7452 345.031 96.2572 343.267 96.2572 340.927C96.2572 338.587 94.7452 336.835 91.6852 336.835H88.0132V332.071H85.8772V345.031H91.6852ZM88.0132 343.219V338.635H91.4092C93.2692 338.635 94.1212 339.607 94.1212 340.927C94.1212 342.247 93.2692 343.219 91.4092 343.219H88.0132ZM103.672 345.391C107.008 345.391 108.952 343.711 108.952 341.311C108.952 339.811 108.064 338.683 106.912 338.323C108.004 337.843 108.604 336.967 108.604 335.647C108.604 333.199 106.792 331.711 103.66 331.711C101.176 331.711 98.9925 332.659 98.2845 335.551L100.324 335.923C100.684 334.471 101.656 333.619 103.612 333.619C105.496 333.619 106.492 334.399 106.492 335.767C106.492 336.883 105.652 337.495 104.212 337.495H102.22V339.259H104.212C105.712 339.259 106.828 339.823 106.828 341.287C106.828 342.643 105.688 343.483 103.612 343.483C101.608 343.483 100.384 342.583 100.108 340.771L98.0685 341.143C98.5725 344.059 100.648 345.391 103.672 345.391ZM117.354 345.391C121.206 345.391 123.606 342.607 123.606 338.539C123.606 334.507 121.23 331.711 117.354 331.711C113.538 331.711 111.114 334.483 111.114 338.539C111.114 342.571 113.502 345.391 117.354 345.391ZM117.354 343.363C114.774 343.363 113.382 341.503 113.382 338.539C113.382 335.611 114.714 333.739 117.354 333.739C119.97 333.739 121.338 335.563 121.338 338.539C121.338 341.467 119.97 343.363 117.354 343.363ZM131.888 345.031C135.02 345.031 136.7 343.783 136.7 341.443C136.7 339.835 135.752 338.671 134.528 338.323C135.596 337.915 136.316 336.991 136.316 335.551C136.316 333.271 134.684 332.071 131.66 332.071H126.476V345.031H131.888ZM131.66 333.835C133.472 333.835 134.252 334.375 134.252 335.755C134.252 337.003 133.34 337.543 132.02 337.543H128.48V333.835H131.66ZM128.492 343.267V339.283H132.236C133.592 339.283 134.636 339.847 134.636 341.299C134.636 342.667 133.676 343.267 131.852 343.267H128.492ZM144.449 331.711C141.629 331.711 139.733 332.995 139.097 335.359L141.089 335.863C141.521 334.351 142.601 333.643 144.425 333.643C146.561 333.643 147.569 334.639 147.581 336.907L143.849 337.363C140.621 337.771 138.617 338.923 138.617 341.587C138.617 343.927 140.333 345.391 143.057 345.391C145.145 345.391 146.681 344.563 147.581 342.991V345.031H149.717V337.195C149.717 333.511 147.989 331.711 144.449 331.711ZM147.581 338.575V338.611C147.581 339.187 147.581 339.967 147.377 340.615C146.969 342.379 145.517 343.543 143.501 343.543C141.677 343.543 140.729 342.823 140.729 341.443C140.729 340.027 141.725 339.307 144.089 339.007L147.581 338.575ZM158.585 345.031V334.087H163.037V332.071H151.997V334.087H156.449V345.031H158.585ZM171.12 343.387C168.792 343.387 167.316 341.827 167.124 339.151H177.06C177.252 334.543 175.044 331.711 171.072 331.711C167.316 331.711 164.832 334.387 164.832 338.551C164.832 342.667 167.328 345.391 171.12 345.391C173.76 345.391 175.824 344.095 176.844 341.791L174.78 341.107C174.072 342.571 172.908 343.387 171.12 343.387ZM167.172 337.435C167.484 335.035 168.876 333.655 171.072 333.655C173.292 333.655 174.648 335.011 174.84 337.435H167.172ZM178.771 345.199C179.191 345.331 179.587 345.391 179.947 345.391C181.999 345.391 183.043 343.303 183.043 338.707V334.087H188.443V345.031H190.579V332.071H181.039V338.107C181.039 341.467 180.643 343.435 179.311 343.435C179.143 343.435 178.963 343.399 178.771 343.339V345.199ZM199.748 343.387C197.42 343.387 195.944 341.827 195.752 339.151H205.688C205.88 334.543 203.672 331.711 199.7 331.711C195.944 331.711 193.46 334.387 193.46 338.551C193.46 342.667 195.956 345.391 199.748 345.391C202.388 345.391 204.452 344.095 205.472 341.791L203.408 341.107C202.7 342.571 201.536 343.387 199.748 343.387ZM195.8 337.435C196.112 335.035 197.504 333.655 199.7 333.655C201.92 333.655 203.276 335.011 203.468 337.435H195.8ZM214.18 330.559C214.78 330.559 215.332 330.415 215.836 330.115C216.832 329.539 217.456 328.471 217.456 327.283H215.728C215.728 328.123 215.056 328.831 214.18 328.831C213.34 328.831 212.632 328.123 212.632 327.283H210.904C210.904 327.871 211.048 328.423 211.348 328.927C211.924 329.935 212.992 330.559 214.18 330.559ZM217.072 332.071L210.724 341.683V332.071H208.588V345.031H210.724L217.072 335.419V345.031H219.208V332.071H217.072ZM225.544 345.031V342.679H223.192V345.031H225.544Z" fill="white"/>
</svg>
