<svg width="106" height="42" viewBox="0 0 106 42" fill="none" xmlns="http://www.w3.org/2000/svg">
<path fill-rule="evenodd" clip-rule="evenodd" d="M60.792 14.647L54.479 14.647C52.703 14.647 51.2632 16.0867 51.2632 17.8627C51.2632 19.6387 52.703 21.0784 54.479 21.0784H60.792C62.5681 21.0784 64.0078 19.6387 64.0078 17.8627C64.0078 16.0867 62.5681 14.647 60.792 14.647ZM54.479 11.053C50.718 11.053 47.6691 14.1018 47.6691 17.8627C47.6691 21.6236 50.718 24.6724 54.479 24.6724H60.792C64.553 24.6724 67.6019 21.6236 67.6019 17.8627C67.6019 14.1018 64.553 11.053 60.792 11.053H54.479Z" fill="black"/>
<path d="M54.5309 20.4695C53.0914 20.4695 51.9244 19.3023 51.9244 17.8624C51.9244 16.4226 53.0914 15.2554 54.5309 15.2554C55.9704 15.2554 57.1373 16.4226 57.1373 17.8624C57.1373 19.3023 55.9704 20.4695 54.5309 20.4695Z" fill="black"/>
<path d="M54.5309 20.4695C53.0914 20.4695 51.9244 19.3023 51.9244 17.8624C51.9244 16.4226 53.0914 15.2554 54.5309 15.2554C55.9704 15.2554 57.1373 16.4226 57.1373 17.8624C57.1373 19.3023 55.9704 20.4695 54.5309 20.4695Z" fill="url(#paint0_linear)"/>
<path d="M51.005 31.4378V27.8478H41.718V11.085H37.8544V31.4378H51.005Z" fill="black"/>
<path d="M8.06566 31.4058C11.9857 31.4058 15.2853 29.6815 15.2853 25.7098C15.2853 22.671 13.3253 21.088 11.8024 20.8195C13.0009 20.452 14.6225 19.081 14.6225 16.438C14.6225 12.848 11.5768 11.053 7.85415 11.053H0V31.4058H8.06566ZM7.93876 14.643C9.48985 14.643 10.7448 15.1377 10.7448 16.9044C10.7448 18.6711 9.48985 19.1517 7.93876 19.1517H3.86362V14.643H7.93876ZM3.86362 27.8158V22.6852H8.06566C9.72956 22.6852 11.4499 23.0527 11.4499 25.2434C11.4499 27.4342 9.72956 27.8158 8.06566 27.8158H3.86362Z" fill="black"/>
<path d="M27.0545 31.4058C30.9745 31.4058 34.2741 29.6815 34.2741 25.7098C34.2741 22.671 32.3141 21.088 30.7912 20.8195C31.9898 20.452 33.6114 19.081 33.6114 16.438C33.6114 12.848 30.5656 11.053 26.843 11.053H18.9888V31.4058H27.0545ZM26.9276 14.643C28.4787 14.643 29.7337 15.1377 29.7337 16.9044C29.7337 18.6711 28.4787 19.1517 26.9276 19.1517H22.8525V14.643H26.9276ZM22.8525 27.8158V22.6852H27.0545C28.7184 22.6852 30.4387 23.0527 30.4387 25.2434C30.4387 27.4342 28.7184 27.8158 27.0545 27.8158H22.8525Z" fill="black"/>
<path d="M75.223 31.4691V24.5503H79.5615C84.5664 24.5503 86.9625 22.055 86.9625 17.8016C86.9625 13.5483 84.5664 11.053 79.5615 11.053H71.3381V31.4691H75.223ZM75.223 14.6542H79.5331C81.8583 14.6542 83.0777 15.7458 83.0777 17.8016C83.0777 19.8574 81.8583 20.9491 79.5331 20.9491H75.223V14.6542Z" fill="black"/>
<path d="M94.2605 31.4691V24.5503H98.599C103.604 24.5503 106 22.055 106 17.8016C106 13.5483 103.604 11.053 98.599 11.053H90.3756V31.4691H94.2605ZM94.2605 14.6542H98.5706C100.896 14.6542 102.115 15.7458 102.115 17.8016C102.115 19.8574 100.896 20.9491 98.5706 20.9491H94.2605V14.6542Z" fill="black"/>
<path fill-rule="evenodd" clip-rule="evenodd" d="M61.928 31.482C61.928 37.2909 57.2188 42 51.4097 42L44.7469 42L44.7469 38.0277L51.4097 38.0277C55.0249 38.0277 57.9556 35.0971 57.9556 31.482L61.928 31.482Z" fill="black"/>
<path fill-rule="evenodd" clip-rule="evenodd" d="M45.5163 3.97234C43.4591 3.97234 41.7915 5.64 41.7915 7.69715H37.819C37.819 3.44613 41.2652 0 45.5163 0H61.9267V8.05704H57.9543V3.97234H45.5163Z" fill="black"/>
<defs>
<linearGradient id="paint0_linear" x1="54.5309" y1="13.2574" x2="51.9245" y2="21.9126" gradientUnits="userSpaceOnUse">
<stop stop-color="#00C6FB"/>
<stop offset="1" stop-color="#005BEA"/>
</linearGradient>
</defs>
</svg>
