<svg width="838" height="197" viewBox="0 0 838 197" fill="none" xmlns="http://www.w3.org/2000/svg">
<path d="M53.136 80.7175V21.6775H43.214L15.703 63.6615V21.6775H5.74V80.7175H15.703L43.214 38.7335V80.7175H53.136ZM80.9974 81.9475C75.4761 81.9475 71.0344 80.7175 67.6724 78.2575C64.3104 75.7975 62.2331 72.1895 61.4404 67.4335L70.7064 65.7935C70.8978 67.1329 71.2804 68.2809 71.8544 69.2375C72.4284 70.1942 73.1528 70.9869 74.0274 71.6155C74.9021 72.2169 75.8998 72.6679 77.0204 72.9685C78.1684 73.2419 79.4121 73.3785 80.7514 73.3785C83.5668 73.3785 85.7534 72.8455 87.3114 71.7795C88.8694 70.7135 89.6484 69.2512 89.6484 67.3925C89.6484 65.4245 88.9514 64.0032 87.5574 63.1285C86.1908 62.2539 84.4004 61.8165 82.1864 61.8165H75.6264V54.0265H82.1864C84.3184 54.0265 85.9038 53.6165 86.9424 52.7965C87.9811 51.9765 88.5004 50.8422 88.5004 49.3935C88.5004 48.4642 88.2954 47.6579 87.8854 46.9745C87.5028 46.2639 86.9561 45.6762 86.2454 45.2115C85.5621 44.7195 84.7421 44.3642 83.7854 44.1455C82.8288 43.8995 81.7901 43.7765 80.6694 43.7765C78.1001 43.7765 76.0364 44.2822 74.4784 45.2935C72.9478 46.3049 71.9364 47.8765 71.4444 50.0085L62.1784 48.3275C62.7524 45.8949 63.6271 43.8449 64.8024 42.1775C66.0051 40.5102 67.4264 39.1572 69.0664 38.1185C70.7064 37.0799 72.5241 36.3419 74.5194 35.9045C76.5421 35.4399 78.6468 35.2075 80.8334 35.2075C83.5394 35.2075 85.9584 35.5219 88.0904 36.1505C90.2224 36.7519 92.0128 37.6402 93.4614 38.8155C94.9374 39.9909 96.0581 41.4259 96.8234 43.1205C97.6161 44.8152 98.0124 46.7422 98.0124 48.9015C98.0124 51.0062 97.6024 52.7829 96.7824 54.2315C95.9898 55.6802 94.6778 56.8555 92.8464 57.7575C94.8144 58.4135 96.3724 59.6162 97.5204 61.3655C98.6684 63.1149 99.2424 65.2059 99.2424 67.6385C99.2424 69.7159 98.8324 71.6292 98.0124 73.3785C97.1924 75.1279 95.9898 76.6449 94.4044 77.9295C92.8464 79.1869 90.9331 80.1709 88.6644 80.8815C86.4231 81.5922 83.8674 81.9475 80.9974 81.9475ZM127.447 82.0295C124.304 82.0022 121.502 81.4555 119.042 80.3895C116.61 79.3235 114.519 77.8202 112.769 75.8795C111.047 73.9389 109.681 71.6019 108.669 68.8685C107.658 66.1079 107.029 63.0329 106.783 59.6435C106.701 58.7142 106.647 57.7029 106.619 56.6095C106.619 55.5162 106.619 54.3955 106.619 53.2475C106.647 52.0722 106.701 50.8832 106.783 49.6805C106.865 48.4779 106.961 47.3162 107.07 46.1955C107.289 44.2549 107.576 42.3689 107.931 40.5375C108.314 38.7062 108.833 36.9842 109.489 35.3715C110.173 33.7315 111.034 32.2282 112.072 30.8615C113.111 29.4675 114.409 28.2512 115.967 27.2125C118.017 25.8459 120.218 24.8345 122.568 24.1785C124.946 23.5225 127.42 23.0305 129.989 22.7025C132.559 22.3472 135.196 22.0465 137.902 21.8005C140.636 21.5272 143.396 21.0899 146.184 20.4885L146.881 29.5905C143.847 30.2192 141.128 30.6702 138.722 30.9435C136.344 31.1895 134.171 31.4219 132.203 31.6405C130.263 31.8319 128.472 32.1052 126.832 32.4605C125.22 32.8159 123.662 33.4035 122.158 34.2235C121.174 34.7702 120.327 35.3989 119.616 36.1095C118.933 36.7929 118.359 37.6129 117.894 38.5695C117.43 39.4989 117.061 40.6059 116.787 41.8905C116.514 43.1479 116.309 44.6375 116.172 46.3595C117.812 43.9269 119.835 42.1775 122.24 41.1115C124.646 40.0182 127.256 39.4715 130.071 39.4715C132.859 39.4715 135.401 39.9772 137.697 40.9885C140.021 41.9999 142.016 43.4349 143.683 45.2935C145.351 47.1249 146.635 49.3252 147.537 51.8945C148.467 54.4639 148.931 57.2929 148.931 60.3815C148.931 63.6615 148.398 66.6409 147.332 69.3195C146.294 71.9709 144.818 74.2532 142.904 76.1665C141.018 78.0525 138.763 79.5149 136.139 80.5535C133.515 81.5649 130.618 82.0569 127.447 82.0295ZM127.857 72.7635C129.579 72.7635 131.11 72.4765 132.449 71.9025C133.789 71.3285 134.909 70.5222 135.811 69.4835C136.713 68.4175 137.397 67.1465 137.861 65.6705C138.326 64.1945 138.558 62.5682 138.558 60.7915C138.558 58.9875 138.312 57.3475 137.82 55.8715C137.356 54.3682 136.672 53.0972 135.77 52.0585C134.868 51.0199 133.761 50.2135 132.449 49.6395C131.137 49.0655 129.648 48.7785 127.98 48.7785C126.231 48.7785 124.687 49.0655 123.347 49.6395C122.035 50.1862 120.928 50.9925 120.026 52.0585C119.124 53.0972 118.441 54.3545 117.976 55.8305C117.512 57.3065 117.279 58.9602 117.279 60.7915C117.279 62.6229 117.512 64.2902 117.976 65.7935C118.468 67.2695 119.165 68.5269 120.067 69.5655C120.969 70.5769 122.076 71.3695 123.388 71.9435C124.7 72.4902 126.19 72.7635 127.857 72.7635ZM177.115 82.0295C173.972 82.0022 171.17 81.4555 168.71 80.3895C166.277 79.3235 164.186 77.8202 162.437 75.8795C160.715 73.9389 159.348 71.6019 158.337 68.8685C157.326 66.1079 156.697 63.0329 156.451 59.6435C156.369 58.7142 156.314 57.7029 156.287 56.6095C156.287 55.5162 156.287 54.3955 156.287 53.2475C156.314 52.0722 156.369 50.8832 156.451 49.6805C156.533 48.4779 156.629 47.3162 156.738 46.1955C156.957 44.2549 157.244 42.3689 157.599 40.5375C157.982 38.7062 158.501 36.9842 159.157 35.3715C159.84 33.7315 160.701 32.2282 161.74 30.8615C162.779 29.4675 164.077 28.2512 165.635 27.2125C167.685 25.8459 169.885 24.8345 172.236 24.1785C174.614 23.5225 177.088 23.0305 179.657 22.7025C182.226 22.3472 184.864 22.0465 187.57 21.8005C190.303 21.5272 193.064 21.0899 195.852 20.4885L196.549 29.5905C193.515 30.2192 190.795 30.6702 188.39 30.9435C186.012 31.1895 183.839 31.4219 181.871 31.6405C179.93 31.8319 178.14 32.1052 176.5 32.4605C174.887 32.8159 173.329 33.4035 171.826 34.2235C170.842 34.7702 169.995 35.3989 169.284 36.1095C168.601 36.7929 168.027 37.6129 167.562 38.5695C167.097 39.4989 166.728 40.6059 166.455 41.8905C166.182 43.1479 165.977 44.6375 165.84 46.3595C167.48 43.9269 169.503 42.1775 171.908 41.1115C174.313 40.0182 176.924 39.4715 179.739 39.4715C182.527 39.4715 185.069 39.9772 187.365 40.9885C189.688 41.9999 191.684 43.4349 193.351 45.2935C195.018 47.1249 196.303 49.3252 197.205 51.8945C198.134 54.4639 198.599 57.2929 198.599 60.3815C198.599 63.6615 198.066 66.6409 197 69.3195C195.961 71.9709 194.485 74.2532 192.572 76.1665C190.686 78.0525 188.431 79.5149 185.807 80.5535C183.183 81.5649 180.286 82.0569 177.115 82.0295ZM177.525 72.7635C179.247 72.7635 180.778 72.4765 182.117 71.9025C183.456 71.3285 184.577 70.5222 185.479 69.4835C186.381 68.4175 187.064 67.1465 187.529 65.6705C187.994 64.1945 188.226 62.5682 188.226 60.7915C188.226 58.9875 187.98 57.3475 187.488 55.8715C187.023 54.3682 186.34 53.0972 185.438 52.0585C184.536 51.0199 183.429 50.2135 182.117 49.6395C180.805 49.0655 179.315 48.7785 177.648 48.7785C175.899 48.7785 174.354 49.0655 173.015 49.6395C171.703 50.1862 170.596 50.9925 169.694 52.0585C168.792 53.0972 168.109 54.3545 167.644 55.8305C167.179 57.3065 166.947 58.9602 166.947 60.7915C166.947 62.6229 167.179 64.2902 167.644 65.7935C168.136 67.2695 168.833 68.5269 169.735 69.5655C170.637 70.5769 171.744 71.3695 173.056 71.9435C174.368 72.4902 175.858 72.7635 177.525 72.7635ZM204.315 72.7635C204.971 72.9549 205.599 73.0505 206.201 73.0505C207.267 73.0505 208.155 72.7089 208.866 72.0255C209.604 71.3149 210.178 70.2762 210.588 68.9095C211.025 67.5429 211.326 65.8482 211.49 63.8255C211.681 61.7755 211.777 59.4249 211.777 56.7735V36.4375H246.094V80.7175H236.213V45.6215H220.879V60.2175C220.879 63.9622 220.619 67.2012 220.1 69.9345C219.58 72.6679 218.829 74.9229 217.845 76.6995C216.861 78.4762 215.631 79.8019 214.155 80.6765C212.706 81.5239 211.039 81.9475 209.153 81.9475C207.649 81.9475 206.037 81.6879 204.315 81.1685V72.7635ZM277.96 81.9475C274.652 81.9475 271.646 81.3735 268.94 80.2255C266.234 79.0775 263.91 77.4785 261.97 75.4285C260.056 73.3785 258.567 70.9185 257.501 68.0485C256.462 65.1785 255.943 62.0215 255.943 58.5775C255.943 55.1335 256.476 51.9765 257.542 49.1065C258.608 46.2365 260.097 43.7765 262.011 41.7265C263.951 39.6492 266.275 38.0502 268.981 36.9295C271.687 35.7815 274.68 35.2075 277.96 35.2075C281.294 35.2075 284.315 35.7815 287.021 36.9295C289.727 38.0502 292.05 39.6492 293.991 41.7265C295.931 43.7765 297.421 46.2365 298.46 49.1065C299.526 51.9765 300.059 55.1335 300.059 58.5775C300.059 62.0215 299.526 65.1785 298.46 68.0485C297.394 70.9185 295.89 73.3922 293.95 75.4695C292.036 77.5195 289.713 79.1185 286.98 80.2665C284.274 81.3872 281.267 81.9475 277.96 81.9475ZM277.96 72.6815C279.818 72.6815 281.472 72.3672 282.921 71.7385C284.369 71.0825 285.586 70.1532 286.57 68.9505C287.554 67.7205 288.305 66.2309 288.825 64.4815C289.344 62.7322 289.604 60.7642 289.604 58.5775C289.604 56.3635 289.344 54.3819 288.825 52.6325C288.333 50.8832 287.595 49.4072 286.611 48.2045C285.627 46.9745 284.41 46.0452 282.962 45.4165C281.513 44.7879 279.846 44.4735 277.96 44.4735C274.188 44.4735 271.318 45.7172 269.35 48.2045C267.382 50.6645 266.398 54.1222 266.398 58.5775C266.398 60.7915 266.644 62.7732 267.136 64.5225C267.655 66.2719 268.407 67.7479 269.391 68.9505C270.375 70.1532 271.577 71.0825 272.999 71.7385C274.447 72.3672 276.101 72.6815 277.96 72.6815ZM309.83 80.7175V36.4375H347.878V80.7175H337.997V45.6215H319.711V80.7175H309.83ZM360.058 80.7175V36.4375H398.106V80.7175H388.225V45.6215H369.939V80.7175H360.058ZM430.622 80.7175H410.368V36.4375H420.249V51.6075H430.622C433.438 51.6075 435.87 51.9902 437.92 52.7555C439.998 53.5209 441.706 54.5732 443.045 55.9125C444.412 57.2245 445.423 58.7689 446.079 60.5455C446.735 62.2949 447.063 64.1672 447.063 66.1625C447.063 68.1579 446.735 70.0439 446.079 71.8205C445.423 73.5699 444.412 75.1142 443.045 76.4535C441.706 77.7655 439.998 78.8042 437.92 79.5695C435.87 80.3349 433.438 80.7175 430.622 80.7175ZM429.146 72.7225C430.568 72.7225 431.784 72.5585 432.795 72.2305C433.807 71.8752 434.64 71.4105 435.296 70.8365C435.952 70.2352 436.431 69.5382 436.731 68.7455C437.032 67.9529 437.182 67.0919 437.182 66.1625C437.182 65.2332 437.032 64.3722 436.731 63.5795C436.431 62.7595 435.952 62.0625 435.296 61.4885C434.64 60.8872 433.807 60.4225 432.795 60.0945C431.784 59.7392 430.568 59.5615 429.146 59.5615H420.249V72.7225H429.146ZM467.696 80.7175V45.6215H453.223V36.4375H492.05V45.6215H477.577V80.7175H467.696ZM520.294 72.8455C522.836 72.8455 524.941 72.3262 526.608 71.2875C528.275 70.2215 529.601 68.6362 530.585 66.5315L540.343 69.3195C538.621 73.3649 536.024 76.4809 532.553 78.6675C529.082 80.8542 524.995 81.9475 520.294 81.9475C516.987 81.9475 513.966 81.3872 511.233 80.2665C508.527 79.1185 506.204 77.5195 504.263 75.4695C502.35 73.3922 500.86 70.9185 499.794 68.0485C498.728 65.1785 498.195 62.0215 498.195 58.5775C498.195 55.0789 498.728 51.8945 499.794 49.0245C500.887 46.1545 502.404 43.6945 504.345 41.6445C506.286 39.5945 508.595 38.0092 511.274 36.8885C513.98 35.7679 516.959 35.2075 520.212 35.2075C523.738 35.2075 526.84 35.8225 529.519 37.0525C532.225 38.2825 534.466 40.0319 536.243 42.3005C538.02 44.5692 539.304 47.3162 540.097 50.5415C540.89 53.7395 541.136 57.3339 540.835 61.3245H508.814C509.251 64.9872 510.454 67.8299 512.422 69.8525C514.417 71.8479 517.041 72.8455 520.294 72.8455ZM530.79 53.8625C530.544 50.7192 529.492 48.2865 527.633 46.5645C525.802 44.8425 523.328 43.9815 520.212 43.9815C517.205 43.9815 514.745 44.8425 512.832 46.5645C510.946 48.2865 509.689 50.7192 509.06 53.8625H530.79ZM570.032 81.9475C566.643 81.9475 563.609 81.3599 560.93 80.1845C558.251 79.0092 555.969 77.3829 554.083 75.3055C552.224 73.2282 550.803 70.7682 549.819 67.9255C548.835 65.0555 548.343 61.9395 548.343 58.5775C548.343 55.1609 548.849 52.0312 549.86 49.1885C550.899 46.3185 552.361 43.8449 554.247 41.7675C556.133 39.6902 558.415 38.0775 561.094 36.9295C563.8 35.7815 566.82 35.2075 570.155 35.2075C572.67 35.2075 575.007 35.5355 577.166 36.1915C579.325 36.8475 581.252 37.7905 582.947 39.0205C584.642 40.2232 586.063 41.6992 587.211 43.4485C588.386 45.1979 589.234 47.1659 589.753 49.3525L579.913 52.0175C579.148 49.6122 577.877 47.7535 576.1 46.4415C574.351 45.1295 572.328 44.4735 570.032 44.4735C568.119 44.4735 566.451 44.8289 565.03 45.5395C563.636 46.2229 562.474 47.1932 561.545 48.4505C560.616 49.6805 559.919 51.1702 559.454 52.9195C559.017 54.6415 558.798 56.5275 558.798 58.5775C558.798 60.6822 559.03 62.6092 559.495 64.3585C559.987 66.0805 560.698 67.5565 561.627 68.7865C562.584 70.0165 563.759 70.9732 565.153 71.6565C566.547 72.3399 568.173 72.6815 570.032 72.6815C572.683 72.6815 574.761 72.0802 576.264 70.8775C577.767 69.6749 578.902 67.9392 579.667 65.6705L589.753 67.9255C588.359 72.4629 585.967 75.9342 582.578 78.3395C579.189 80.7449 575.007 81.9475 570.032 81.9475ZM619.043 80.7175H598.789V36.4375H608.67V51.6075H619.043C621.858 51.6075 624.291 51.9902 626.341 52.7555C628.418 53.5209 630.127 54.5732 631.466 55.9125C632.833 57.2245 633.844 58.7689 634.5 60.5455C635.156 62.2949 635.484 64.1672 635.484 66.1625C635.484 68.1579 635.156 70.0439 634.5 71.8205C633.844 73.5699 632.833 75.1142 631.466 76.4535C630.127 77.7655 628.418 78.8042 626.341 79.5695C624.291 80.3349 621.858 80.7175 619.043 80.7175ZM617.567 72.7225C618.988 72.7225 620.205 72.5585 621.216 72.2305C622.227 71.8752 623.061 71.4105 623.717 70.8365C624.373 70.2352 624.851 69.5382 625.152 68.7455C625.453 67.9529 625.603 67.0919 625.603 66.1625C625.603 65.2332 625.453 64.3722 625.152 63.5795C624.851 62.7595 624.373 62.0625 623.717 61.4885C623.061 60.8872 622.227 60.4225 621.216 60.0945C620.205 59.7392 618.988 59.5615 617.567 59.5615H608.67V72.7225H617.567ZM25.297 179.948C21.9897 179.948 18.983 179.374 16.277 178.226C13.571 177.078 11.2477 175.479 9.307 173.429C7.39367 171.379 5.904 168.919 4.838 166.049C3.79933 163.179 3.28 160.022 3.28 156.578C3.28 153.134 3.813 149.977 4.879 147.107C5.945 144.237 7.43467 141.777 9.348 139.727C11.2887 137.649 13.612 136.05 16.318 134.93C19.024 133.782 22.017 133.208 25.297 133.208C28.6317 133.208 31.652 133.782 34.358 134.93C37.064 136.05 39.3873 137.649 41.328 139.727C43.2687 141.777 44.7583 144.237 45.797 147.107C46.863 149.977 47.396 153.134 47.396 156.578C47.396 160.022 46.863 163.179 45.797 166.049C44.731 168.919 43.2277 171.392 41.287 173.47C39.3737 175.52 37.0503 177.119 34.317 178.267C31.611 179.387 28.6043 179.948 25.297 179.948ZM25.297 170.682C27.1557 170.682 28.8093 170.367 30.258 169.739C31.7067 169.083 32.923 168.153 33.907 166.951C34.891 165.721 35.6427 164.231 36.162 162.482C36.6813 160.732 36.941 158.764 36.941 156.578C36.941 154.364 36.6813 152.382 36.162 150.633C35.67 148.883 34.932 147.407 33.948 146.205C32.964 144.975 31.7477 144.045 30.299 143.417C28.8503 142.788 27.183 142.474 25.297 142.474C21.525 142.474 18.655 143.717 16.687 146.205C14.719 148.665 13.735 152.122 13.735 156.578C13.735 158.792 13.981 160.773 14.473 162.523C14.9923 164.272 15.744 165.748 16.728 166.951C17.712 168.153 18.9147 169.083 20.336 169.739C21.7847 170.367 23.4383 170.682 25.297 170.682ZM67.1516 178.718V143.622H52.6786V134.438H91.5056V143.622H77.0326V178.718H67.1516ZM113.246 170.764C113.902 170.955 114.531 171.051 115.132 171.051C116.198 171.051 117.087 170.709 117.797 170.026C118.535 169.315 119.109 168.276 119.519 166.91C119.957 165.543 120.257 163.848 120.421 161.826C120.613 159.776 120.708 157.425 120.708 154.774V134.438H155.025V178.718H145.144V143.622H129.81V158.218C129.81 161.962 129.551 165.201 129.031 167.935C128.512 170.668 127.76 172.923 126.776 174.7C125.792 176.476 124.562 177.802 123.086 178.677C121.638 179.524 119.97 179.948 118.084 179.948C116.581 179.948 114.968 179.688 113.246 179.169V170.764ZM205.71 134.438V178.718H195.829V149.608L177.133 178.718H167.252V134.438H177.133V163.548L195.829 134.438H205.71ZM217.961 134.438H227.842V169.534H243.463V134.438H253.344V169.534H268.965V134.438H278.846V178.718H217.961V134.438ZM291.092 178.718V134.438H300.973V151.986H320.858V134.438H330.739V178.718H320.858V161.17H300.973V178.718H291.092ZM381.379 134.438V178.718H371.498V149.608L352.802 178.718H342.921V134.438H352.802V163.548L371.498 134.438H381.379ZM388.792 178.718L404.987 156.332L389.12 134.438H400.764L410.727 148.583L420.526 134.438H432.17L416.303 156.332L432.58 178.718H420.936L410.727 164.081L400.436 178.718H388.792ZM457.09 134.438H466.971V155.758L483.166 134.438H495.507L478.328 156.578L496.983 178.718H483.904L466.971 157.398V178.718H457.09V134.438ZM501.793 178.718V134.438H511.674V151.986H531.559V134.438H541.44V178.718H531.559V161.17H511.674V178.718H501.793ZM573.262 179.948C569.955 179.948 566.948 179.374 564.242 178.226C561.536 177.078 559.213 175.479 557.272 173.429C555.359 171.379 553.869 168.919 552.803 166.049C551.764 163.179 551.245 160.022 551.245 156.578C551.245 153.134 551.778 149.977 552.844 147.107C553.91 144.237 555.4 141.777 557.313 139.727C559.254 137.649 561.577 136.05 564.283 134.93C566.989 133.782 569.982 133.208 573.262 133.208C576.597 133.208 579.617 133.782 582.323 134.93C585.029 136.05 587.352 137.649 589.293 139.727C591.234 141.777 592.723 144.237 593.762 147.107C594.828 149.977 595.361 153.134 595.361 156.578C595.361 160.022 594.828 163.179 593.762 166.049C592.696 168.919 591.193 171.392 589.252 173.47C587.339 175.52 585.015 177.119 582.282 178.267C579.576 179.387 576.569 179.948 573.262 179.948ZM573.262 170.682C575.121 170.682 576.774 170.367 578.223 169.739C579.672 169.083 580.888 168.153 581.872 166.951C582.856 165.721 583.608 164.231 584.127 162.482C584.646 160.732 584.906 158.764 584.906 156.578C584.906 154.364 584.646 152.382 584.127 150.633C583.635 148.883 582.897 147.407 581.913 146.205C580.929 144.975 579.713 144.045 578.264 143.417C576.815 142.788 575.148 142.474 573.262 142.474C569.49 142.474 566.62 143.717 564.652 146.205C562.684 148.665 561.7 152.122 561.7 156.578C561.7 158.792 561.946 160.773 562.438 162.523C562.957 164.272 563.709 165.748 564.693 166.951C565.677 168.153 566.88 169.083 568.301 169.739C569.75 170.367 571.403 170.682 573.262 170.682ZM605.132 178.718V134.438H643.18V178.718H633.299V143.622H615.013V178.718H605.132ZM675 179.948C671.692 179.948 668.686 179.374 665.98 178.226C663.274 177.078 660.95 175.479 659.01 173.429C657.096 171.379 655.607 168.919 654.541 166.049C653.502 163.179 652.983 160.022 652.983 156.578C652.983 153.134 653.516 149.977 654.582 147.107C655.648 144.237 657.137 141.777 659.051 139.727C660.991 137.649 663.315 136.05 666.021 134.93C668.727 133.782 671.72 133.208 675 133.208C678.334 133.208 681.355 133.782 684.061 134.93C686.767 136.05 689.09 137.649 691.031 139.727C692.971 141.777 694.461 144.237 695.5 147.107C696.566 149.977 697.099 153.134 697.099 156.578C697.099 160.022 696.566 163.179 695.5 166.049C694.434 168.919 692.93 171.392 690.99 173.47C689.076 175.52 686.753 177.119 684.02 178.267C681.314 179.387 678.307 179.948 675 179.948ZM675 170.682C676.858 170.682 678.512 170.367 679.961 169.739C681.409 169.083 682.626 168.153 683.61 166.951C684.594 165.721 685.345 164.231 685.865 162.482C686.384 160.732 686.644 158.764 686.644 156.578C686.644 154.364 686.384 152.382 685.865 150.633C685.373 148.883 684.635 147.407 683.651 146.205C682.667 144.975 681.45 144.045 680.002 143.417C678.553 142.788 676.886 142.474 675 142.474C671.228 142.474 668.358 143.717 666.39 146.205C664.422 148.665 663.438 152.122 663.438 156.578C663.438 158.792 663.684 160.773 664.176 162.523C664.695 164.272 665.447 165.748 666.431 166.951C667.415 168.153 668.617 169.083 670.039 169.739C671.487 170.367 673.141 170.682 675 170.682ZM706.87 134.438H716.751V155.758L732.946 134.438H745.287L728.108 156.578L746.763 178.718H733.684L716.751 157.398V178.718H706.87V134.438ZM755.755 163.958V119.678H764.939V163.958H755.755ZM755.755 178.718V169.657H764.939V178.718H755.755Z" fill="black"/>
<path d="M684.565 81.4512C679.064 81.4512 674.605 76.9921 674.605 71.4916L674.605 51.5723C674.605 46.0718 679.064 41.6127 684.565 41.6127C690.065 41.6127 694.524 46.0718 694.524 51.5723L694.524 71.4916C694.524 76.9921 690.065 81.4512 684.565 81.4512Z" fill="#FF6A7C"/>
<path d="M684.565 21.6935C695.566 21.6935 704.484 30.6117 704.484 41.6127C704.484 52.6138 695.566 61.532 684.565 61.532C673.564 61.532 664.645 52.6138 664.645 41.6127C664.645 30.6117 673.564 21.6935 684.565 21.6935Z" fill="black"/>
<path d="M751.012 21.6934C756.512 21.6934 760.971 26.1524 760.971 31.653L760.971 51.5722C760.971 57.0728 756.512 61.5318 751.012 61.5318C745.511 61.5318 741.052 57.0728 741.052 51.5722L741.052 31.653C741.052 26.1524 745.511 21.6934 751.012 21.6934Z" fill="#39CA85"/>
<path d="M751.012 81.451C740.011 81.451 731.092 72.5329 731.092 61.5318C731.092 50.5307 740.011 41.6125 751.012 41.6125C762.013 41.6125 770.931 50.5307 770.931 61.5318C770.931 72.5329 762.013 81.451 751.012 81.451Z" fill="black"/>
<path d="M817.459 41.5908C822.959 41.5908 827.418 46.0499 827.418 51.5504L827.418 71.4697C827.418 76.9702 822.959 81.4293 817.459 81.4293C811.958 81.4293 807.499 76.9702 807.499 71.4697L807.499 51.5504C807.499 46.0499 811.958 41.5908 817.459 41.5908Z" fill="#FFB660"/>
<path d="M817.459 61.5318C806.457 61.5318 797.539 52.6137 797.539 41.6126C797.539 30.6115 806.457 21.6934 817.459 21.6934C828.46 21.6934 837.378 30.6115 837.378 41.6126C837.378 52.6137 828.46 61.5318 817.459 61.5318Z" fill="black"/>
</svg>
